<mxfile host="65bd71144e">
    <diagram id="VkrndAy6EloFZf3CxVXe" name="E-R图(1)">
        <mxGraphModel dx="930" dy="659" grid="1" gridSize="10" guides="1" tooltips="1" connect="1" arrows="1" fold="1" page="1" pageScale="1" pageWidth="827" pageHeight="1169" math="0" shadow="0">
            <root>
                <mxCell id="0"/>
                <mxCell id="1" parent="0"/>
                <mxCell id="A91-F1ble7apJPzSlR-q-1" value="&lt;font style=&quot;font-size: 16px;&quot;&gt;病人&lt;/font&gt;" style="rounded=0;whiteSpace=wrap;html=1;fontFamily=Helvetica;" parent="1" vertex="1">
                    <mxGeometry x="370" y="160" width="80" height="40" as="geometry"/>
                </mxCell>
                <mxCell id="A91-F1ble7apJPzSlR-q-2" value="账号" style="ellipse;whiteSpace=wrap;html=1;fontSize=16;fontFamily=Helvetica;" parent="1" vertex="1">
                    <mxGeometry x="200" y="140" width="70" height="40" as="geometry"/>
                </mxCell>
                <mxCell id="A91-F1ble7apJPzSlR-q-3" value="密码" style="ellipse;whiteSpace=wrap;html=1;fontSize=16;fontFamily=Helvetica;" parent="1" vertex="1">
                    <mxGeometry x="530" y="140" width="70" height="40" as="geometry"/>
                </mxCell>
                <mxCell id="A91-F1ble7apJPzSlR-q-4" value="姓名" style="ellipse;whiteSpace=wrap;html=1;fontSize=16;fontFamily=Helvetica;" parent="1" vertex="1">
                    <mxGeometry x="530" y="50" width="70" height="40" as="geometry"/>
                </mxCell>
                <mxCell id="A91-F1ble7apJPzSlR-q-5" value="ID" style="ellipse;whiteSpace=wrap;html=1;fontSize=16;fontFamily=Helvetica;" parent="1" vertex="1">
                    <mxGeometry x="200" y="50" width="70" height="40" as="geometry"/>
                </mxCell>
                <mxCell id="A91-F1ble7apJPzSlR-q-7" value="性别" style="ellipse;whiteSpace=wrap;html=1;fontSize=16;fontFamily=Helvetica;" parent="1" vertex="1">
                    <mxGeometry x="320" y="50" width="70" height="40" as="geometry"/>
                </mxCell>
                <mxCell id="A91-F1ble7apJPzSlR-q-8" value="年龄" style="ellipse;whiteSpace=wrap;html=1;fontSize=16;fontFamily=Helvetica;" parent="1" vertex="1">
                    <mxGeometry x="430" y="50" width="70" height="40" as="geometry"/>
                </mxCell>
                <mxCell id="A91-F1ble7apJPzSlR-q-9" value="电话" style="ellipse;whiteSpace=wrap;html=1;fontSize=16;fontFamily=Helvetica;" parent="1" vertex="1">
                    <mxGeometry x="270" y="90" width="70" height="40" as="geometry"/>
                </mxCell>
                <mxCell id="A91-F1ble7apJPzSlR-q-10" value="邮箱" style="ellipse;whiteSpace=wrap;html=1;fontSize=16;fontFamily=Helvetica;" parent="1" vertex="1">
                    <mxGeometry x="375" y="90" width="70" height="40" as="geometry"/>
                </mxCell>
                <mxCell id="A91-F1ble7apJPzSlR-q-11" value="医保" style="ellipse;whiteSpace=wrap;html=1;fontSize=16;fontFamily=Helvetica;" parent="1" vertex="1">
                    <mxGeometry x="470" y="90" width="70" height="40" as="geometry"/>
                </mxCell>
                <mxCell id="esDxQ2XM3lBaAg80joZp-1" value="&lt;font style=&quot;font-size: 16px;&quot;&gt;挂号&lt;/font&gt;" style="rounded=0;whiteSpace=wrap;html=1;fontFamily=Helvetica;" parent="1" vertex="1">
                    <mxGeometry x="89" y="420" width="80" height="40" as="geometry"/>
                </mxCell>
                <mxCell id="esDxQ2XM3lBaAg80joZp-3" value="时间" style="ellipse;whiteSpace=wrap;html=1;fontSize=16;fontFamily=Helvetica;" parent="1" vertex="1">
                    <mxGeometry x="4" y="370" width="70" height="40" as="geometry"/>
                </mxCell>
                <mxCell id="esDxQ2XM3lBaAg80joZp-4" value="科室" style="ellipse;whiteSpace=wrap;html=1;fontSize=16;fontFamily=Helvetica;" parent="1" vertex="1">
                    <mxGeometry x="4" y="470" width="70" height="40" as="geometry"/>
                </mxCell>
                <mxCell id="esDxQ2XM3lBaAg80joZp-5" value="号次" style="ellipse;whiteSpace=wrap;html=1;fontSize=16;fontFamily=Helvetica;" parent="1" vertex="1">
                    <mxGeometry x="179" y="370" width="70" height="40" as="geometry"/>
                </mxCell>
                <mxCell id="esDxQ2XM3lBaAg80joZp-6" value="标识" style="ellipse;whiteSpace=wrap;html=1;fontSize=16;fontFamily=Helvetica;" parent="1" vertex="1">
                    <mxGeometry x="179" y="470" width="70" height="40" as="geometry"/>
                </mxCell>
                <mxCell id="esDxQ2XM3lBaAg80joZp-7" value="&lt;font style=&quot;font-size: 16px;&quot;&gt;预约&lt;/font&gt;" style="rounded=0;whiteSpace=wrap;html=1;fontFamily=Helvetica;" parent="1" vertex="1">
                    <mxGeometry x="369" y="420" width="80" height="40" as="geometry"/>
                </mxCell>
                <mxCell id="esDxQ2XM3lBaAg80joZp-9" value="时段" style="ellipse;whiteSpace=wrap;html=1;fontSize=16;fontFamily=Helvetica;" parent="1" vertex="1">
                    <mxGeometry x="284" y="370" width="70" height="40" as="geometry"/>
                </mxCell>
                <mxCell id="esDxQ2XM3lBaAg80joZp-10" value="科室" style="ellipse;whiteSpace=wrap;html=1;fontSize=16;fontFamily=Helvetica;" parent="1" vertex="1">
                    <mxGeometry x="461.5" y="370" width="70" height="40" as="geometry"/>
                </mxCell>
                <mxCell id="esDxQ2XM3lBaAg80joZp-11" value="号次" style="ellipse;whiteSpace=wrap;html=1;fontSize=16;fontFamily=Helvetica;" parent="1" vertex="1">
                    <mxGeometry x="284" y="470" width="70" height="40" as="geometry"/>
                </mxCell>
                <mxCell id="esDxQ2XM3lBaAg80joZp-12" value="标识" style="ellipse;whiteSpace=wrap;html=1;fontSize=16;fontFamily=Helvetica;" parent="1" vertex="1">
                    <mxGeometry x="461.5" y="470" width="70" height="40" as="geometry"/>
                </mxCell>
                <mxCell id="p96J7U3AIc4TSG7YhwrV-1" value="&lt;font style=&quot;font-size: 16px;&quot;&gt;投诉&lt;/font&gt;" style="rounded=0;whiteSpace=wrap;html=1;fontFamily=Helvetica;" parent="1" vertex="1">
                    <mxGeometry x="664" y="420" width="80" height="40" as="geometry"/>
                </mxCell>
                <mxCell id="p96J7U3AIc4TSG7YhwrV-3" value="时间" style="ellipse;whiteSpace=wrap;html=1;fontSize=16;fontFamily=Helvetica;" parent="1" vertex="1">
                    <mxGeometry x="574" y="370" width="70" height="40" as="geometry"/>
                </mxCell>
                <mxCell id="p96J7U3AIc4TSG7YhwrV-4" value="标识" style="ellipse;whiteSpace=wrap;html=1;fontSize=16;fontFamily=Helvetica;" parent="1" vertex="1">
                    <mxGeometry x="754" y="370" width="70" height="40" as="geometry"/>
                </mxCell>
                <mxCell id="p96J7U3AIc4TSG7YhwrV-5" value="内容" style="ellipse;whiteSpace=wrap;html=1;fontSize=16;fontFamily=Helvetica;" parent="1" vertex="1">
                    <mxGeometry x="574" y="470" width="70" height="40" as="geometry"/>
                </mxCell>
                <mxCell id="p96J7U3AIc4TSG7YhwrV-6" value="结果" style="ellipse;whiteSpace=wrap;html=1;fontSize=16;fontFamily=Helvetica;" parent="1" vertex="1">
                    <mxGeometry x="754" y="470" width="70" height="40" as="geometry"/>
                </mxCell>
                <mxCell id="_Z8bAi8CUv-X2nDh-UN_-4" value="" style="endArrow=none;html=1;fontSize=16;exitX=0;exitY=1;exitDx=0;exitDy=0;entryX=0;entryY=0.75;entryDx=0;entryDy=0;fontFamily=Helvetica;" parent="1" source="A91-F1ble7apJPzSlR-q-5" target="A91-F1ble7apJPzSlR-q-1" edge="1">
                    <mxGeometry width="50" height="50" relative="1" as="geometry">
                        <mxPoint x="400" y="260" as="sourcePoint"/>
                        <mxPoint x="450" y="210" as="targetPoint"/>
                    </mxGeometry>
                </mxCell>
                <mxCell id="_Z8bAi8CUv-X2nDh-UN_-5" value="" style="endArrow=none;html=1;fontSize=16;entryX=1;entryY=1;entryDx=0;entryDy=0;exitX=1;exitY=0.75;exitDx=0;exitDy=0;fontFamily=Helvetica;" parent="1" source="A91-F1ble7apJPzSlR-q-1" target="A91-F1ble7apJPzSlR-q-4" edge="1">
                    <mxGeometry width="50" height="50" relative="1" as="geometry">
                        <mxPoint x="400" y="260" as="sourcePoint"/>
                        <mxPoint x="450" y="210" as="targetPoint"/>
                    </mxGeometry>
                </mxCell>
                <mxCell id="_Z8bAi8CUv-X2nDh-UN_-6" value="" style="endArrow=none;html=1;fontSize=16;exitX=0.5;exitY=1;exitDx=0;exitDy=0;entryX=0.25;entryY=0;entryDx=0;entryDy=0;fontFamily=Helvetica;" parent="1" source="A91-F1ble7apJPzSlR-q-7" target="A91-F1ble7apJPzSlR-q-1" edge="1">
                    <mxGeometry width="50" height="50" relative="1" as="geometry">
                        <mxPoint x="400" y="260" as="sourcePoint"/>
                        <mxPoint x="450" y="210" as="targetPoint"/>
                    </mxGeometry>
                </mxCell>
                <mxCell id="_Z8bAi8CUv-X2nDh-UN_-7" value="" style="endArrow=none;html=1;fontSize=16;entryX=0.5;entryY=1;entryDx=0;entryDy=0;exitX=0.75;exitY=0;exitDx=0;exitDy=0;fontFamily=Helvetica;" parent="1" source="A91-F1ble7apJPzSlR-q-1" target="A91-F1ble7apJPzSlR-q-8" edge="1">
                    <mxGeometry width="50" height="50" relative="1" as="geometry">
                        <mxPoint x="400" y="260" as="sourcePoint"/>
                        <mxPoint x="450" y="210" as="targetPoint"/>
                    </mxGeometry>
                </mxCell>
                <mxCell id="_Z8bAi8CUv-X2nDh-UN_-8" value="" style="endArrow=none;html=1;fontSize=16;exitX=1;exitY=1;exitDx=0;exitDy=0;entryX=0;entryY=1;entryDx=0;entryDy=0;fontFamily=Helvetica;" parent="1" source="A91-F1ble7apJPzSlR-q-2" target="A91-F1ble7apJPzSlR-q-1" edge="1">
                    <mxGeometry width="50" height="50" relative="1" as="geometry">
                        <mxPoint x="235" y="190" as="sourcePoint"/>
                        <mxPoint x="450" y="210" as="targetPoint"/>
                    </mxGeometry>
                </mxCell>
                <mxCell id="_Z8bAi8CUv-X2nDh-UN_-9" value="" style="endArrow=none;html=1;fontSize=16;entryX=0;entryY=1;entryDx=0;entryDy=0;exitX=1;exitY=1;exitDx=0;exitDy=0;fontFamily=Helvetica;" parent="1" source="A91-F1ble7apJPzSlR-q-1" target="A91-F1ble7apJPzSlR-q-3" edge="1">
                    <mxGeometry width="50" height="50" relative="1" as="geometry">
                        <mxPoint x="400" y="260" as="sourcePoint"/>
                        <mxPoint x="450" y="210" as="targetPoint"/>
                    </mxGeometry>
                </mxCell>
                <mxCell id="_Z8bAi8CUv-X2nDh-UN_-10" value="" style="endArrow=none;html=1;fontSize=16;exitX=1;exitY=1;exitDx=0;exitDy=0;entryX=0;entryY=0.25;entryDx=0;entryDy=0;fontFamily=Helvetica;" parent="1" source="A91-F1ble7apJPzSlR-q-9" target="A91-F1ble7apJPzSlR-q-1" edge="1">
                    <mxGeometry width="50" height="50" relative="1" as="geometry">
                        <mxPoint x="400" y="260" as="sourcePoint"/>
                        <mxPoint x="450" y="210" as="targetPoint"/>
                    </mxGeometry>
                </mxCell>
                <mxCell id="_Z8bAi8CUv-X2nDh-UN_-11" value="" style="endArrow=none;html=1;fontSize=16;entryX=0;entryY=1;entryDx=0;entryDy=0;exitX=1;exitY=0.25;exitDx=0;exitDy=0;fontFamily=Helvetica;" parent="1" source="A91-F1ble7apJPzSlR-q-1" target="A91-F1ble7apJPzSlR-q-11" edge="1">
                    <mxGeometry width="50" height="50" relative="1" as="geometry">
                        <mxPoint x="400" y="260" as="sourcePoint"/>
                        <mxPoint x="450" y="210" as="targetPoint"/>
                    </mxGeometry>
                </mxCell>
                <mxCell id="_Z8bAi8CUv-X2nDh-UN_-12" value="" style="endArrow=none;html=1;fontSize=16;entryX=0.5;entryY=1;entryDx=0;entryDy=0;fontFamily=Helvetica;" parent="1" target="A91-F1ble7apJPzSlR-q-10" edge="1">
                    <mxGeometry width="50" height="50" relative="1" as="geometry">
                        <mxPoint x="410" y="160" as="sourcePoint"/>
                        <mxPoint x="450" y="210" as="targetPoint"/>
                    </mxGeometry>
                </mxCell>
                <mxCell id="5miCes0c3BRJ7a9snd-E-1" value="" style="endArrow=none;html=1;fontSize=16;exitX=1;exitY=1;exitDx=0;exitDy=0;fontFamily=Helvetica;" parent="1" source="esDxQ2XM3lBaAg80joZp-3" target="esDxQ2XM3lBaAg80joZp-1" edge="1">
                    <mxGeometry width="50" height="50" relative="1" as="geometry">
                        <mxPoint x="410" y="460" as="sourcePoint"/>
                        <mxPoint x="460" y="410" as="targetPoint"/>
                    </mxGeometry>
                </mxCell>
                <mxCell id="5miCes0c3BRJ7a9snd-E-2" value="" style="endArrow=none;html=1;fontSize=16;exitX=1;exitY=0;exitDx=0;exitDy=0;fontFamily=Helvetica;" parent="1" source="esDxQ2XM3lBaAg80joZp-1" target="esDxQ2XM3lBaAg80joZp-5" edge="1">
                    <mxGeometry width="50" height="50" relative="1" as="geometry">
                        <mxPoint x="410" y="460" as="sourcePoint"/>
                        <mxPoint x="460" y="410" as="targetPoint"/>
                    </mxGeometry>
                </mxCell>
                <mxCell id="5miCes0c3BRJ7a9snd-E-3" value="" style="endArrow=none;html=1;fontSize=16;exitX=1;exitY=0;exitDx=0;exitDy=0;fontFamily=Helvetica;" parent="1" source="esDxQ2XM3lBaAg80joZp-4" target="esDxQ2XM3lBaAg80joZp-1" edge="1">
                    <mxGeometry width="50" height="50" relative="1" as="geometry">
                        <mxPoint x="410" y="460" as="sourcePoint"/>
                        <mxPoint x="460" y="410" as="targetPoint"/>
                    </mxGeometry>
                </mxCell>
                <mxCell id="5miCes0c3BRJ7a9snd-E-4" value="" style="endArrow=none;html=1;fontSize=16;fontFamily=Helvetica;" parent="1" target="esDxQ2XM3lBaAg80joZp-6" edge="1">
                    <mxGeometry width="50" height="50" relative="1" as="geometry">
                        <mxPoint x="170" y="460" as="sourcePoint"/>
                        <mxPoint x="460" y="410" as="targetPoint"/>
                    </mxGeometry>
                </mxCell>
                <mxCell id="5miCes0c3BRJ7a9snd-E-5" value="" style="endArrow=none;html=1;fontSize=16;exitX=1;exitY=1;exitDx=0;exitDy=0;fontFamily=Helvetica;" parent="1" source="esDxQ2XM3lBaAg80joZp-9" target="esDxQ2XM3lBaAg80joZp-7" edge="1">
                    <mxGeometry width="50" height="50" relative="1" as="geometry">
                        <mxPoint x="410" y="460" as="sourcePoint"/>
                        <mxPoint x="460" y="410" as="targetPoint"/>
                    </mxGeometry>
                </mxCell>
                <mxCell id="5miCes0c3BRJ7a9snd-E-6" value="" style="endArrow=none;html=1;fontSize=16;entryX=0;entryY=1;entryDx=0;entryDy=0;fontFamily=Helvetica;" parent="1" target="esDxQ2XM3lBaAg80joZp-10" edge="1">
                    <mxGeometry width="50" height="50" relative="1" as="geometry">
                        <mxPoint x="450" y="420" as="sourcePoint"/>
                        <mxPoint x="460" y="410" as="targetPoint"/>
                    </mxGeometry>
                </mxCell>
                <mxCell id="5miCes0c3BRJ7a9snd-E-7" value="" style="endArrow=none;html=1;fontSize=16;entryX=0;entryY=1;entryDx=0;entryDy=0;fontFamily=Helvetica;" parent="1" source="esDxQ2XM3lBaAg80joZp-11" target="esDxQ2XM3lBaAg80joZp-7" edge="1">
                    <mxGeometry width="50" height="50" relative="1" as="geometry">
                        <mxPoint x="410" y="460" as="sourcePoint"/>
                        <mxPoint x="460" y="410" as="targetPoint"/>
                    </mxGeometry>
                </mxCell>
                <mxCell id="5miCes0c3BRJ7a9snd-E-8" value="" style="endArrow=none;html=1;fontSize=16;exitX=1;exitY=1;exitDx=0;exitDy=0;entryX=0;entryY=0;entryDx=0;entryDy=0;fontFamily=Helvetica;" parent="1" source="esDxQ2XM3lBaAg80joZp-7" target="esDxQ2XM3lBaAg80joZp-12" edge="1">
                    <mxGeometry width="50" height="50" relative="1" as="geometry">
                        <mxPoint x="410" y="460" as="sourcePoint"/>
                        <mxPoint x="460" y="410" as="targetPoint"/>
                    </mxGeometry>
                </mxCell>
                <mxCell id="5miCes0c3BRJ7a9snd-E-9" value="" style="endArrow=none;html=1;fontSize=16;exitX=1;exitY=1;exitDx=0;exitDy=0;entryX=0.075;entryY=0;entryDx=0;entryDy=0;entryPerimeter=0;fontFamily=Helvetica;" parent="1" source="p96J7U3AIc4TSG7YhwrV-3" target="p96J7U3AIc4TSG7YhwrV-1" edge="1">
                    <mxGeometry width="50" height="50" relative="1" as="geometry">
                        <mxPoint x="594" y="470" as="sourcePoint"/>
                        <mxPoint x="660" y="420" as="targetPoint"/>
                    </mxGeometry>
                </mxCell>
                <mxCell id="5miCes0c3BRJ7a9snd-E-10" value="" style="endArrow=none;html=1;fontSize=16;entryX=0;entryY=1;entryDx=0;entryDy=0;fontFamily=Helvetica;" parent="1" target="p96J7U3AIc4TSG7YhwrV-4" edge="1">
                    <mxGeometry width="50" height="50" relative="1" as="geometry">
                        <mxPoint x="744" y="420" as="sourcePoint"/>
                        <mxPoint x="770" y="400" as="targetPoint"/>
                    </mxGeometry>
                </mxCell>
                <mxCell id="5miCes0c3BRJ7a9snd-E-11" value="" style="endArrow=none;html=1;fontSize=16;exitX=1;exitY=0;exitDx=0;exitDy=0;entryX=0;entryY=1;entryDx=0;entryDy=0;fontFamily=Helvetica;" parent="1" source="p96J7U3AIc4TSG7YhwrV-5" target="p96J7U3AIc4TSG7YhwrV-1" edge="1">
                    <mxGeometry width="50" height="50" relative="1" as="geometry">
                        <mxPoint x="660" y="510" as="sourcePoint"/>
                        <mxPoint x="670" y="460" as="targetPoint"/>
                    </mxGeometry>
                </mxCell>
                <mxCell id="5miCes0c3BRJ7a9snd-E-12" value="" style="endArrow=none;html=1;fontSize=16;entryX=0;entryY=0;entryDx=0;entryDy=0;exitX=1;exitY=1;exitDx=0;exitDy=0;fontFamily=Helvetica;" parent="1" source="p96J7U3AIc4TSG7YhwrV-1" target="p96J7U3AIc4TSG7YhwrV-6" edge="1">
                    <mxGeometry width="50" height="50" relative="1" as="geometry">
                        <mxPoint x="704" y="540" as="sourcePoint"/>
                        <mxPoint x="754" y="490" as="targetPoint"/>
                    </mxGeometry>
                </mxCell>
                <mxCell id="5miCes0c3BRJ7a9snd-E-13" value="执行/查看" style="rhombus;whiteSpace=wrap;html=1;fontSize=16;fontFamily=Helvetica;" parent="1" vertex="1">
                    <mxGeometry x="76" y="260" width="106" height="60" as="geometry"/>
                </mxCell>
                <mxCell id="5miCes0c3BRJ7a9snd-E-14" value="执行/查看" style="rhombus;whiteSpace=wrap;html=1;fontSize=16;fontFamily=Helvetica;" parent="1" vertex="1">
                    <mxGeometry x="356" y="260" width="106" height="60" as="geometry"/>
                </mxCell>
                <mxCell id="5miCes0c3BRJ7a9snd-E-15" value="执行/查看" style="rhombus;whiteSpace=wrap;html=1;fontSize=16;fontFamily=Helvetica;" parent="1" vertex="1">
                    <mxGeometry x="651" y="260" width="106" height="60" as="geometry"/>
                </mxCell>
                <mxCell id="5miCes0c3BRJ7a9snd-E-16" value="" style="endArrow=none;html=1;fontSize=16;exitX=0.5;exitY=0;exitDx=0;exitDy=0;entryX=0.25;entryY=1;entryDx=0;entryDy=0;fontFamily=Helvetica;" parent="1" source="5miCes0c3BRJ7a9snd-E-13" target="A91-F1ble7apJPzSlR-q-1" edge="1">
                    <mxGeometry width="50" height="50" relative="1" as="geometry">
                        <mxPoint x="410" y="360" as="sourcePoint"/>
                        <mxPoint x="460" y="310" as="targetPoint"/>
                    </mxGeometry>
                </mxCell>
                <mxCell id="5miCes0c3BRJ7a9snd-E-17" value="" style="endArrow=none;html=1;fontSize=16;exitX=0.5;exitY=0;exitDx=0;exitDy=0;entryX=0.5;entryY=1;entryDx=0;entryDy=0;fontFamily=Helvetica;" parent="1" source="5miCes0c3BRJ7a9snd-E-14" target="A91-F1ble7apJPzSlR-q-1" edge="1">
                    <mxGeometry width="50" height="50" relative="1" as="geometry">
                        <mxPoint x="410" y="360" as="sourcePoint"/>
                        <mxPoint x="420" y="220" as="targetPoint"/>
                    </mxGeometry>
                </mxCell>
                <mxCell id="5miCes0c3BRJ7a9snd-E-18" value="" style="endArrow=none;html=1;fontSize=16;entryX=0.75;entryY=1;entryDx=0;entryDy=0;exitX=0.5;exitY=0;exitDx=0;exitDy=0;fontFamily=Helvetica;" parent="1" source="5miCes0c3BRJ7a9snd-E-15" target="A91-F1ble7apJPzSlR-q-1" edge="1">
                    <mxGeometry width="50" height="50" relative="1" as="geometry">
                        <mxPoint x="410" y="360" as="sourcePoint"/>
                        <mxPoint x="460" y="310" as="targetPoint"/>
                    </mxGeometry>
                </mxCell>
                <mxCell id="5miCes0c3BRJ7a9snd-E-19" value="" style="endArrow=none;html=1;fontSize=16;exitX=0.5;exitY=1;exitDx=0;exitDy=0;fontFamily=Helvetica;" parent="1" source="5miCes0c3BRJ7a9snd-E-13" target="esDxQ2XM3lBaAg80joZp-1" edge="1">
                    <mxGeometry width="50" height="50" relative="1" as="geometry">
                        <mxPoint x="410" y="360" as="sourcePoint"/>
                        <mxPoint x="460" y="310" as="targetPoint"/>
                    </mxGeometry>
                </mxCell>
                <mxCell id="5miCes0c3BRJ7a9snd-E-21" value="" style="endArrow=none;html=1;fontSize=16;exitX=0.5;exitY=1;exitDx=0;exitDy=0;fontFamily=Helvetica;" parent="1" edge="1">
                    <mxGeometry width="50" height="50" relative="1" as="geometry">
                        <mxPoint x="408.5" y="320" as="sourcePoint"/>
                        <mxPoint x="408.5" y="420" as="targetPoint"/>
                    </mxGeometry>
                </mxCell>
                <mxCell id="5miCes0c3BRJ7a9snd-E-22" value="" style="endArrow=none;html=1;fontSize=16;exitX=0.5;exitY=1;exitDx=0;exitDy=0;fontFamily=Helvetica;" parent="1" edge="1">
                    <mxGeometry width="50" height="50" relative="1" as="geometry">
                        <mxPoint x="703.5" y="320" as="sourcePoint"/>
                        <mxPoint x="703.5" y="420" as="targetPoint"/>
                    </mxGeometry>
                </mxCell>
                <mxCell id="uFyaukuFtMbKK42lwuoA-1" value="&lt;font style=&quot;font-size: 16px;&quot;&gt;医生&lt;/font&gt;" style="rounded=0;whiteSpace=wrap;html=1;fontFamily=Helvetica;" parent="1" vertex="1">
                    <mxGeometry x="180" y="750" width="80" height="40" as="geometry"/>
                </mxCell>
                <mxCell id="uFyaukuFtMbKK42lwuoA-2" value="账号" style="ellipse;whiteSpace=wrap;html=1;fontSize=16;fontFamily=Helvetica;" parent="1" vertex="1">
                    <mxGeometry x="80" y="820" width="70" height="40" as="geometry"/>
                </mxCell>
                <mxCell id="uFyaukuFtMbKK42lwuoA-3" value="密码" style="ellipse;whiteSpace=wrap;html=1;fontSize=16;fontFamily=Helvetica;" parent="1" vertex="1">
                    <mxGeometry x="10" y="860" width="70" height="40" as="geometry"/>
                </mxCell>
                <mxCell id="uFyaukuFtMbKK42lwuoA-4" value="姓名" style="ellipse;whiteSpace=wrap;html=1;fontSize=16;fontFamily=Helvetica;" parent="1" vertex="1">
                    <mxGeometry x="240" y="860" width="70" height="40" as="geometry"/>
                </mxCell>
                <mxCell id="uFyaukuFtMbKK42lwuoA-5" value="电话" style="ellipse;whiteSpace=wrap;html=1;fontSize=16;fontFamily=Helvetica;" parent="1" vertex="1">
                    <mxGeometry x="290" y="820" width="70" height="40" as="geometry"/>
                </mxCell>
                <mxCell id="uFyaukuFtMbKK42lwuoA-6" value="邮箱" style="ellipse;whiteSpace=wrap;html=1;fontSize=16;fontFamily=Helvetica;" parent="1" vertex="1">
                    <mxGeometry x="130" y="860" width="70" height="40" as="geometry"/>
                </mxCell>
                <mxCell id="uFyaukuFtMbKK42lwuoA-7" value="专家" style="ellipse;whiteSpace=wrap;html=1;fontSize=16;fontFamily=Helvetica;" parent="1" vertex="1">
                    <mxGeometry x="360" y="860" width="70" height="40" as="geometry"/>
                </mxCell>
                <mxCell id="uFyaukuFtMbKK42lwuoA-8" value="最后登录" style="ellipse;whiteSpace=wrap;html=1;fontSize=16;fontFamily=Helvetica;" parent="1" vertex="1">
                    <mxGeometry x="184" y="820" width="70" height="40" as="geometry"/>
                </mxCell>
                <mxCell id="uFyaukuFtMbKK42lwuoA-9" value="" style="endArrow=none;html=1;fontSize=16;exitX=0.5;exitY=0;exitDx=0;exitDy=0;entryX=0;entryY=0.5;entryDx=0;entryDy=0;fontFamily=Helvetica;" parent="1" source="uFyaukuFtMbKK42lwuoA-2" target="uFyaukuFtMbKK42lwuoA-1" edge="1">
                    <mxGeometry width="50" height="50" relative="1" as="geometry">
                        <mxPoint x="220" y="860" as="sourcePoint"/>
                        <mxPoint x="270" y="810" as="targetPoint"/>
                    </mxGeometry>
                </mxCell>
                <mxCell id="uFyaukuFtMbKK42lwuoA-10" value="" style="endArrow=none;html=1;fontSize=16;exitX=0.5;exitY=0;exitDx=0;exitDy=0;entryX=0.5;entryY=1;entryDx=0;entryDy=0;fontFamily=Helvetica;" parent="1" source="uFyaukuFtMbKK42lwuoA-8" target="uFyaukuFtMbKK42lwuoA-1" edge="1">
                    <mxGeometry width="50" height="50" relative="1" as="geometry">
                        <mxPoint x="220" y="860" as="sourcePoint"/>
                        <mxPoint x="270" y="810" as="targetPoint"/>
                    </mxGeometry>
                </mxCell>
                <mxCell id="uFyaukuFtMbKK42lwuoA-11" value="" style="endArrow=none;html=1;fontSize=16;entryX=1;entryY=0.5;entryDx=0;entryDy=0;exitX=0.5;exitY=0;exitDx=0;exitDy=0;fontFamily=Helvetica;" parent="1" source="uFyaukuFtMbKK42lwuoA-5" target="uFyaukuFtMbKK42lwuoA-1" edge="1">
                    <mxGeometry width="50" height="50" relative="1" as="geometry">
                        <mxPoint x="220" y="860" as="sourcePoint"/>
                        <mxPoint x="270" y="810" as="targetPoint"/>
                    </mxGeometry>
                </mxCell>
                <mxCell id="uFyaukuFtMbKK42lwuoA-12" value="" style="endArrow=none;html=1;fontSize=16;exitX=0;exitY=0;exitDx=0;exitDy=0;entryX=0;entryY=0.25;entryDx=0;entryDy=0;fontFamily=Helvetica;" parent="1" source="uFyaukuFtMbKK42lwuoA-3" target="uFyaukuFtMbKK42lwuoA-1" edge="1">
                    <mxGeometry width="50" height="50" relative="1" as="geometry">
                        <mxPoint x="220" y="860" as="sourcePoint"/>
                        <mxPoint x="270" y="810" as="targetPoint"/>
                    </mxGeometry>
                </mxCell>
                <mxCell id="uFyaukuFtMbKK42lwuoA-13" value="" style="endArrow=none;html=1;fontSize=16;exitX=1;exitY=0.25;exitDx=0;exitDy=0;entryX=1;entryY=0;entryDx=0;entryDy=0;fontFamily=Helvetica;" parent="1" source="uFyaukuFtMbKK42lwuoA-1" target="uFyaukuFtMbKK42lwuoA-7" edge="1">
                    <mxGeometry width="50" height="50" relative="1" as="geometry">
                        <mxPoint x="220" y="760" as="sourcePoint"/>
                        <mxPoint x="270" y="710" as="targetPoint"/>
                    </mxGeometry>
                </mxCell>
                <mxCell id="uFyaukuFtMbKK42lwuoA-14" value="" style="endArrow=none;html=1;fontSize=16;exitX=0.5;exitY=0;exitDx=0;exitDy=0;entryX=0.25;entryY=1;entryDx=0;entryDy=0;fontFamily=Helvetica;" parent="1" source="uFyaukuFtMbKK42lwuoA-6" target="uFyaukuFtMbKK42lwuoA-1" edge="1">
                    <mxGeometry width="50" height="50" relative="1" as="geometry">
                        <mxPoint x="220" y="760" as="sourcePoint"/>
                        <mxPoint x="270" y="710" as="targetPoint"/>
                    </mxGeometry>
                </mxCell>
                <mxCell id="uFyaukuFtMbKK42lwuoA-15" value="" style="endArrow=none;html=1;fontSize=16;exitX=0.5;exitY=0;exitDx=0;exitDy=0;entryX=0.75;entryY=1;entryDx=0;entryDy=0;fontFamily=Helvetica;" parent="1" source="uFyaukuFtMbKK42lwuoA-4" target="uFyaukuFtMbKK42lwuoA-1" edge="1">
                    <mxGeometry width="50" height="50" relative="1" as="geometry">
                        <mxPoint x="220" y="760" as="sourcePoint"/>
                        <mxPoint x="270" y="710" as="targetPoint"/>
                    </mxGeometry>
                </mxCell>
                <mxCell id="uFyaukuFtMbKK42lwuoA-17" value="被选中" style="rhombus;whiteSpace=wrap;html=1;fontSize=16;fontFamily=Helvetica;" parent="1" vertex="1">
                    <mxGeometry x="10" y="555" width="106" height="60" as="geometry"/>
                </mxCell>
                <mxCell id="uFyaukuFtMbKK42lwuoA-25" value="&lt;span style=&quot;font-size: 16px;&quot;&gt;管理员&lt;/span&gt;" style="rounded=0;whiteSpace=wrap;html=1;fontFamily=Helvetica;" parent="1" vertex="1">
                    <mxGeometry x="610" y="740" width="80" height="40" as="geometry"/>
                </mxCell>
                <mxCell id="uFyaukuFtMbKK42lwuoA-26" value="账号" style="ellipse;whiteSpace=wrap;html=1;fontSize=16;fontFamily=Helvetica;" parent="1" vertex="1">
                    <mxGeometry x="520" y="810" width="70" height="40" as="geometry"/>
                </mxCell>
                <mxCell id="uFyaukuFtMbKK42lwuoA-27" value="密码" style="ellipse;whiteSpace=wrap;html=1;fontSize=16;fontFamily=Helvetica;" parent="1" vertex="1">
                    <mxGeometry x="615" y="810" width="70" height="40" as="geometry"/>
                </mxCell>
                <mxCell id="uFyaukuFtMbKK42lwuoA-28" value="姓名" style="ellipse;whiteSpace=wrap;html=1;fontSize=16;fontFamily=Helvetica;" parent="1" vertex="1">
                    <mxGeometry x="720" y="740" width="70" height="40" as="geometry"/>
                </mxCell>
                <mxCell id="uFyaukuFtMbKK42lwuoA-29" value="邮箱" style="ellipse;whiteSpace=wrap;html=1;fontSize=16;fontFamily=Helvetica;" parent="1" vertex="1">
                    <mxGeometry x="710" y="810" width="70" height="40" as="geometry"/>
                </mxCell>
                <mxCell id="uFyaukuFtMbKK42lwuoA-30" value="职位" style="ellipse;whiteSpace=wrap;html=1;fontSize=16;fontFamily=Helvetica;" parent="1" vertex="1">
                    <mxGeometry x="674" y="860" width="70" height="40" as="geometry"/>
                </mxCell>
                <mxCell id="uFyaukuFtMbKK42lwuoA-31" value="最后登录" style="ellipse;whiteSpace=wrap;html=1;fontSize=16;fontFamily=Helvetica;" parent="1" vertex="1">
                    <mxGeometry x="560" y="860" width="70" height="40" as="geometry"/>
                </mxCell>
                <mxCell id="uFyaukuFtMbKK42lwuoA-32" value="" style="endArrow=none;html=1;fontSize=16;exitX=0.5;exitY=0;exitDx=0;exitDy=0;fontFamily=Helvetica;" parent="1" source="uFyaukuFtMbKK42lwuoA-26" target="uFyaukuFtMbKK42lwuoA-25" edge="1">
                    <mxGeometry width="50" height="50" relative="1" as="geometry">
                        <mxPoint x="410" y="720" as="sourcePoint"/>
                        <mxPoint x="460" y="670" as="targetPoint"/>
                    </mxGeometry>
                </mxCell>
                <mxCell id="uFyaukuFtMbKK42lwuoA-33" value="" style="endArrow=none;html=1;fontSize=16;exitX=0.5;exitY=0;exitDx=0;exitDy=0;entryX=0.5;entryY=1;entryDx=0;entryDy=0;fontFamily=Helvetica;" parent="1" source="uFyaukuFtMbKK42lwuoA-27" target="uFyaukuFtMbKK42lwuoA-25" edge="1">
                    <mxGeometry width="50" height="50" relative="1" as="geometry">
                        <mxPoint x="410" y="720" as="sourcePoint"/>
                        <mxPoint x="460" y="670" as="targetPoint"/>
                    </mxGeometry>
                </mxCell>
                <mxCell id="uFyaukuFtMbKK42lwuoA-34" value="" style="endArrow=none;html=1;fontSize=16;exitX=0.5;exitY=0;exitDx=0;exitDy=0;entryX=1;entryY=1;entryDx=0;entryDy=0;fontFamily=Helvetica;" parent="1" source="uFyaukuFtMbKK42lwuoA-29" target="uFyaukuFtMbKK42lwuoA-25" edge="1">
                    <mxGeometry width="50" height="50" relative="1" as="geometry">
                        <mxPoint x="410" y="720" as="sourcePoint"/>
                        <mxPoint x="460" y="670" as="targetPoint"/>
                    </mxGeometry>
                </mxCell>
                <mxCell id="uFyaukuFtMbKK42lwuoA-35" value="" style="endArrow=none;html=1;fontSize=16;exitX=0;exitY=0.5;exitDx=0;exitDy=0;entryX=1;entryY=0.5;entryDx=0;entryDy=0;fontFamily=Helvetica;" parent="1" source="uFyaukuFtMbKK42lwuoA-28" target="uFyaukuFtMbKK42lwuoA-25" edge="1">
                    <mxGeometry width="50" height="50" relative="1" as="geometry">
                        <mxPoint x="410" y="720" as="sourcePoint"/>
                        <mxPoint x="460" y="670" as="targetPoint"/>
                    </mxGeometry>
                </mxCell>
                <mxCell id="uFyaukuFtMbKK42lwuoA-36" value="" style="endArrow=none;html=1;fontSize=16;exitX=0.5;exitY=0;exitDx=0;exitDy=0;entryX=0.25;entryY=1;entryDx=0;entryDy=0;fontFamily=Helvetica;" parent="1" source="uFyaukuFtMbKK42lwuoA-31" target="uFyaukuFtMbKK42lwuoA-25" edge="1">
                    <mxGeometry width="50" height="50" relative="1" as="geometry">
                        <mxPoint x="410" y="720" as="sourcePoint"/>
                        <mxPoint x="460" y="670" as="targetPoint"/>
                    </mxGeometry>
                </mxCell>
                <mxCell id="uFyaukuFtMbKK42lwuoA-37" value="" style="endArrow=none;html=1;fontSize=16;exitX=0.5;exitY=0;exitDx=0;exitDy=0;entryX=0.75;entryY=1;entryDx=0;entryDy=0;fontFamily=Helvetica;" parent="1" source="uFyaukuFtMbKK42lwuoA-30" target="uFyaukuFtMbKK42lwuoA-25" edge="1">
                    <mxGeometry width="50" height="50" relative="1" as="geometry">
                        <mxPoint x="410" y="720" as="sourcePoint"/>
                        <mxPoint x="460" y="670" as="targetPoint"/>
                    </mxGeometry>
                </mxCell>
                <mxCell id="uFyaukuFtMbKK42lwuoA-38" value="管理" style="rhombus;whiteSpace=wrap;html=1;fontSize=16;fontFamily=Helvetica;" parent="1" vertex="1">
                    <mxGeometry x="134" y="555" width="106" height="60" as="geometry"/>
                </mxCell>
                <mxCell id="uFyaukuFtMbKK42lwuoA-39" value="" style="endArrow=none;html=1;fontSize=16;exitX=0.5;exitY=0;exitDx=0;exitDy=0;entryX=0.25;entryY=1;entryDx=0;entryDy=0;fontFamily=Helvetica;" parent="1" source="uFyaukuFtMbKK42lwuoA-17" target="esDxQ2XM3lBaAg80joZp-1" edge="1">
                    <mxGeometry width="50" height="50" relative="1" as="geometry">
                        <mxPoint x="410" y="570" as="sourcePoint"/>
                        <mxPoint x="460" y="520" as="targetPoint"/>
                    </mxGeometry>
                </mxCell>
                <mxCell id="uFyaukuFtMbKK42lwuoA-40" value="" style="endArrow=none;html=1;fontSize=16;exitX=0.5;exitY=0;exitDx=0;exitDy=0;entryX=0.75;entryY=1;entryDx=0;entryDy=0;fontFamily=Helvetica;" parent="1" source="uFyaukuFtMbKK42lwuoA-38" target="esDxQ2XM3lBaAg80joZp-1" edge="1">
                    <mxGeometry width="50" height="50" relative="1" as="geometry">
                        <mxPoint x="160" y="500" as="sourcePoint"/>
                        <mxPoint x="179.5" y="385" as="targetPoint"/>
                    </mxGeometry>
                </mxCell>
                <mxCell id="uFyaukuFtMbKK42lwuoA-42" value="被选中" style="rhombus;whiteSpace=wrap;html=1;fontSize=16;fontFamily=Helvetica;" parent="1" vertex="1">
                    <mxGeometry x="295" y="555" width="106" height="60" as="geometry"/>
                </mxCell>
                <mxCell id="uFyaukuFtMbKK42lwuoA-43" value="管理" style="rhombus;whiteSpace=wrap;html=1;fontSize=16;fontFamily=Helvetica;" parent="1" vertex="1">
                    <mxGeometry x="419" y="555" width="106" height="60" as="geometry"/>
                </mxCell>
                <mxCell id="uFyaukuFtMbKK42lwuoA-44" value="被选中" style="rhombus;whiteSpace=wrap;html=1;fontSize=16;fontFamily=Helvetica;" parent="1" vertex="1">
                    <mxGeometry x="589" y="555" width="106" height="60" as="geometry"/>
                </mxCell>
                <mxCell id="uFyaukuFtMbKK42lwuoA-45" value="管理" style="rhombus;whiteSpace=wrap;html=1;fontSize=16;fontFamily=Helvetica;" parent="1" vertex="1">
                    <mxGeometry x="713" y="555" width="106" height="60" as="geometry"/>
                </mxCell>
                <mxCell id="uFyaukuFtMbKK42lwuoA-46" value="" style="endArrow=none;html=1;fontSize=16;exitX=0.5;exitY=0;exitDx=0;exitDy=0;entryX=0.25;entryY=1;entryDx=0;entryDy=0;fontFamily=Helvetica;" parent="1" source="uFyaukuFtMbKK42lwuoA-42" target="esDxQ2XM3lBaAg80joZp-7" edge="1">
                    <mxGeometry width="50" height="50" relative="1" as="geometry">
                        <mxPoint x="410" y="670" as="sourcePoint"/>
                        <mxPoint x="460" y="620" as="targetPoint"/>
                    </mxGeometry>
                </mxCell>
                <mxCell id="uFyaukuFtMbKK42lwuoA-47" value="" style="endArrow=none;html=1;fontSize=16;exitX=0.5;exitY=0;exitDx=0;exitDy=0;entryX=0.25;entryY=1;entryDx=0;entryDy=0;fontFamily=Helvetica;" parent="1" source="uFyaukuFtMbKK42lwuoA-44" target="p96J7U3AIc4TSG7YhwrV-1" edge="1">
                    <mxGeometry width="50" height="50" relative="1" as="geometry">
                        <mxPoint x="670" y="570" as="sourcePoint"/>
                        <mxPoint x="700" y="490" as="targetPoint"/>
                    </mxGeometry>
                </mxCell>
                <mxCell id="uFyaukuFtMbKK42lwuoA-48" value="" style="endArrow=none;html=1;fontSize=16;exitX=0.5;exitY=0;exitDx=0;exitDy=0;entryX=0.75;entryY=1;entryDx=0;entryDy=0;fontFamily=Helvetica;" parent="1" source="uFyaukuFtMbKK42lwuoA-43" target="esDxQ2XM3lBaAg80joZp-7" edge="1">
                    <mxGeometry width="50" height="50" relative="1" as="geometry">
                        <mxPoint x="430" y="520" as="sourcePoint"/>
                        <mxPoint x="444.5" y="410" as="targetPoint"/>
                    </mxGeometry>
                </mxCell>
                <mxCell id="uFyaukuFtMbKK42lwuoA-49" value="" style="endArrow=none;html=1;fontSize=16;exitX=0.5;exitY=0;exitDx=0;exitDy=0;entryX=0.75;entryY=1;entryDx=0;entryDy=0;fontFamily=Helvetica;" parent="1" source="uFyaukuFtMbKK42lwuoA-45" target="p96J7U3AIc4TSG7YhwrV-1" edge="1">
                    <mxGeometry width="50" height="50" relative="1" as="geometry">
                        <mxPoint x="700" y="510" as="sourcePoint"/>
                        <mxPoint x="710" y="490" as="targetPoint"/>
                    </mxGeometry>
                </mxCell>
                <mxCell id="uFyaukuFtMbKK42lwuoA-50" value="" style="endArrow=none;html=1;fontSize=16;exitX=0.5;exitY=1;exitDx=0;exitDy=0;fontFamily=Helvetica;" parent="1" source="uFyaukuFtMbKK42lwuoA-17" target="uFyaukuFtMbKK42lwuoA-1" edge="1">
                    <mxGeometry width="50" height="50" relative="1" as="geometry">
                        <mxPoint x="410" y="680" as="sourcePoint"/>
                        <mxPoint x="460" y="630" as="targetPoint"/>
                    </mxGeometry>
                </mxCell>
                <mxCell id="uFyaukuFtMbKK42lwuoA-51" value="" style="endArrow=none;html=1;fontSize=16;entryX=0.5;entryY=1;entryDx=0;entryDy=0;exitX=0.5;exitY=0;exitDx=0;exitDy=0;fontFamily=Helvetica;" parent="1" source="uFyaukuFtMbKK42lwuoA-1" target="uFyaukuFtMbKK42lwuoA-42" edge="1">
                    <mxGeometry width="50" height="50" relative="1" as="geometry">
                        <mxPoint x="220" y="740" as="sourcePoint"/>
                        <mxPoint x="374.5" y="570" as="targetPoint"/>
                    </mxGeometry>
                </mxCell>
                <mxCell id="uFyaukuFtMbKK42lwuoA-52" value="" style="endArrow=none;html=1;fontSize=16;exitX=0.75;exitY=0;exitDx=0;exitDy=0;entryX=0.5;entryY=1;entryDx=0;entryDy=0;fontFamily=Helvetica;" parent="1" source="uFyaukuFtMbKK42lwuoA-1" target="uFyaukuFtMbKK42lwuoA-44" edge="1">
                    <mxGeometry width="50" height="50" relative="1" as="geometry">
                        <mxPoint x="480" y="650" as="sourcePoint"/>
                        <mxPoint x="494.5" y="540" as="targetPoint"/>
                    </mxGeometry>
                </mxCell>
                <mxCell id="uFyaukuFtMbKK42lwuoA-53" value="" style="endArrow=none;html=1;fontSize=16;entryX=0.5;entryY=1;entryDx=0;entryDy=0;exitX=0.25;exitY=0;exitDx=0;exitDy=0;fontFamily=Helvetica;" parent="1" source="uFyaukuFtMbKK42lwuoA-25" target="uFyaukuFtMbKK42lwuoA-38" edge="1">
                    <mxGeometry width="50" height="50" relative="1" as="geometry">
                        <mxPoint x="410" y="680" as="sourcePoint"/>
                        <mxPoint x="460" y="630" as="targetPoint"/>
                    </mxGeometry>
                </mxCell>
                <mxCell id="uFyaukuFtMbKK42lwuoA-54" value="" style="endArrow=none;html=1;fontSize=16;entryX=0.5;entryY=1;entryDx=0;entryDy=0;exitX=0.5;exitY=0;exitDx=0;exitDy=0;fontFamily=Helvetica;" parent="1" source="uFyaukuFtMbKK42lwuoA-25" target="uFyaukuFtMbKK42lwuoA-43" edge="1">
                    <mxGeometry width="50" height="50" relative="1" as="geometry">
                        <mxPoint x="410" y="680" as="sourcePoint"/>
                        <mxPoint x="460" y="630" as="targetPoint"/>
                    </mxGeometry>
                </mxCell>
                <mxCell id="uFyaukuFtMbKK42lwuoA-55" value="" style="endArrow=none;html=1;fontSize=16;exitX=0.75;exitY=0;exitDx=0;exitDy=0;entryX=0.5;entryY=1;entryDx=0;entryDy=0;fontFamily=Helvetica;" parent="1" source="uFyaukuFtMbKK42lwuoA-25" target="uFyaukuFtMbKK42lwuoA-45" edge="1">
                    <mxGeometry width="50" height="50" relative="1" as="geometry">
                        <mxPoint x="460" y="740" as="sourcePoint"/>
                        <mxPoint x="474.5" y="630" as="targetPoint"/>
                    </mxGeometry>
                </mxCell>
            </root>
        </mxGraphModel>
    </diagram>
    <diagram id="eUutxGW2ISR0aycMwEZI" name="E-R图(2)">
        <mxGraphModel dx="930" dy="659" grid="1" gridSize="10" guides="1" tooltips="1" connect="1" arrows="1" fold="1" page="1" pageScale="1" pageWidth="827" pageHeight="1169" math="0" shadow="0">
            <root>
                <mxCell id="0"/>
                <mxCell id="1" parent="0"/>
                <mxCell id="poprKnPYcE3O3LBdKCY--1" value="&lt;font style=&quot;font-size: 16px;&quot;&gt;医生&lt;/font&gt;" style="rounded=0;whiteSpace=wrap;html=1;direction=east;" parent="1" vertex="1">
                    <mxGeometry x="379" y="160" width="80" height="40" as="geometry"/>
                </mxCell>
                <mxCell id="poprKnPYcE3O3LBdKCY--2" value="账号" style="ellipse;whiteSpace=wrap;html=1;fontSize=16;direction=east;" parent="1" vertex="1">
                    <mxGeometry x="280" y="80" width="70" height="40" as="geometry"/>
                </mxCell>
                <mxCell id="poprKnPYcE3O3LBdKCY--3" value="密码" style="ellipse;whiteSpace=wrap;html=1;fontSize=16;direction=east;" parent="1" vertex="1">
                    <mxGeometry x="210" y="30" width="70" height="40" as="geometry"/>
                </mxCell>
                <mxCell id="poprKnPYcE3O3LBdKCY--4" value="姓名" style="ellipse;whiteSpace=wrap;html=1;fontSize=16;direction=east;" parent="1" vertex="1">
                    <mxGeometry x="440" y="30" width="70" height="40" as="geometry"/>
                </mxCell>
                <mxCell id="poprKnPYcE3O3LBdKCY--5" value="电话" style="ellipse;whiteSpace=wrap;html=1;fontSize=16;direction=east;" parent="1" vertex="1">
                    <mxGeometry x="490" y="80" width="70" height="40" as="geometry"/>
                </mxCell>
                <mxCell id="poprKnPYcE3O3LBdKCY--6" value="邮箱" style="ellipse;whiteSpace=wrap;html=1;fontSize=16;direction=east;" parent="1" vertex="1">
                    <mxGeometry x="330" y="30" width="70" height="40" as="geometry"/>
                </mxCell>
                <mxCell id="poprKnPYcE3O3LBdKCY--7" value="专家" style="ellipse;whiteSpace=wrap;html=1;fontSize=16;direction=east;" parent="1" vertex="1">
                    <mxGeometry x="560" y="30" width="70" height="40" as="geometry"/>
                </mxCell>
                <mxCell id="poprKnPYcE3O3LBdKCY--8" value="最后登录" style="ellipse;whiteSpace=wrap;html=1;fontSize=16;direction=east;" parent="1" vertex="1">
                    <mxGeometry x="384" y="80" width="70" height="40" as="geometry"/>
                </mxCell>
                <mxCell id="UFzIbTB8ZbH7t7lc0OyA-2" value="" style="endArrow=none;html=1;fontSize=16;exitX=0.5;exitY=1;exitDx=0;exitDy=0;entryX=0;entryY=0;entryDx=0;entryDy=0;" parent="1" source="poprKnPYcE3O3LBdKCY--2" target="poprKnPYcE3O3LBdKCY--1" edge="1">
                    <mxGeometry width="50" height="50" relative="1" as="geometry">
                        <mxPoint x="390" y="260" as="sourcePoint"/>
                        <mxPoint x="440" y="210" as="targetPoint"/>
                    </mxGeometry>
                </mxCell>
                <mxCell id="UFzIbTB8ZbH7t7lc0OyA-3" value="" style="endArrow=none;html=1;fontSize=16;entryX=0.5;entryY=1;entryDx=0;entryDy=0;exitX=0.5;exitY=0;exitDx=0;exitDy=0;" parent="1" source="poprKnPYcE3O3LBdKCY--1" target="poprKnPYcE3O3LBdKCY--8" edge="1">
                    <mxGeometry width="50" height="50" relative="1" as="geometry">
                        <mxPoint x="390" y="260" as="sourcePoint"/>
                        <mxPoint x="440" y="210" as="targetPoint"/>
                    </mxGeometry>
                </mxCell>
                <mxCell id="UFzIbTB8ZbH7t7lc0OyA-4" value="" style="endArrow=none;html=1;fontSize=16;entryX=0.5;entryY=1;entryDx=0;entryDy=0;exitX=1;exitY=0;exitDx=0;exitDy=0;" parent="1" source="poprKnPYcE3O3LBdKCY--1" target="poprKnPYcE3O3LBdKCY--5" edge="1">
                    <mxGeometry width="50" height="50" relative="1" as="geometry">
                        <mxPoint x="390" y="260" as="sourcePoint"/>
                        <mxPoint x="440" y="210" as="targetPoint"/>
                    </mxGeometry>
                </mxCell>
                <mxCell id="UFzIbTB8ZbH7t7lc0OyA-5" value="" style="endArrow=none;html=1;fontSize=16;exitX=0;exitY=1;exitDx=0;exitDy=0;entryX=0;entryY=0.75;entryDx=0;entryDy=0;" parent="1" source="poprKnPYcE3O3LBdKCY--3" target="poprKnPYcE3O3LBdKCY--1" edge="1">
                    <mxGeometry width="50" height="50" relative="1" as="geometry">
                        <mxPoint x="390" y="260" as="sourcePoint"/>
                        <mxPoint x="440" y="210" as="targetPoint"/>
                    </mxGeometry>
                </mxCell>
                <mxCell id="UFzIbTB8ZbH7t7lc0OyA-6" value="" style="endArrow=none;html=1;fontSize=16;entryX=1;entryY=1;entryDx=0;entryDy=0;exitX=1;exitY=0.75;exitDx=0;exitDy=0;" parent="1" source="poprKnPYcE3O3LBdKCY--1" target="poprKnPYcE3O3LBdKCY--7" edge="1">
                    <mxGeometry width="50" height="50" relative="1" as="geometry">
                        <mxPoint x="390" y="260" as="sourcePoint"/>
                        <mxPoint x="440" y="210" as="targetPoint"/>
                    </mxGeometry>
                </mxCell>
                <mxCell id="UFzIbTB8ZbH7t7lc0OyA-7" value="" style="endArrow=none;html=1;fontSize=16;entryX=0.5;entryY=1;entryDx=0;entryDy=0;exitX=0.25;exitY=0;exitDx=0;exitDy=0;" parent="1" source="poprKnPYcE3O3LBdKCY--1" target="poprKnPYcE3O3LBdKCY--6" edge="1">
                    <mxGeometry width="50" height="50" relative="1" as="geometry">
                        <mxPoint x="390" y="260" as="sourcePoint"/>
                        <mxPoint x="440" y="210" as="targetPoint"/>
                    </mxGeometry>
                </mxCell>
                <mxCell id="UFzIbTB8ZbH7t7lc0OyA-8" value="" style="endArrow=none;html=1;fontSize=16;entryX=0.5;entryY=1;entryDx=0;entryDy=0;exitX=0.75;exitY=0;exitDx=0;exitDy=0;" parent="1" source="poprKnPYcE3O3LBdKCY--1" target="poprKnPYcE3O3LBdKCY--4" edge="1">
                    <mxGeometry width="50" height="50" relative="1" as="geometry">
                        <mxPoint x="390" y="260" as="sourcePoint"/>
                        <mxPoint x="440" y="210" as="targetPoint"/>
                    </mxGeometry>
                </mxCell>
                <mxCell id="JXwWzpg9c1mC7S7cnMvl-1" value="&lt;span style=&quot;font-size: 16px;&quot;&gt;管理员&lt;/span&gt;" style="rounded=0;whiteSpace=wrap;html=1;" parent="1" vertex="1">
                    <mxGeometry x="171" y="780" width="80" height="40" as="geometry"/>
                </mxCell>
                <mxCell id="JXwWzpg9c1mC7S7cnMvl-2" value="账号" style="ellipse;whiteSpace=wrap;html=1;fontSize=16;" parent="1" vertex="1">
                    <mxGeometry x="81" y="850" width="70" height="40" as="geometry"/>
                </mxCell>
                <mxCell id="JXwWzpg9c1mC7S7cnMvl-3" value="密码" style="ellipse;whiteSpace=wrap;html=1;fontSize=16;" parent="1" vertex="1">
                    <mxGeometry x="176" y="850" width="70" height="40" as="geometry"/>
                </mxCell>
                <mxCell id="JXwWzpg9c1mC7S7cnMvl-4" value="姓名" style="ellipse;whiteSpace=wrap;html=1;fontSize=16;" parent="1" vertex="1">
                    <mxGeometry x="11" y="890" width="70" height="40" as="geometry"/>
                </mxCell>
                <mxCell id="JXwWzpg9c1mC7S7cnMvl-5" value="邮箱" style="ellipse;whiteSpace=wrap;html=1;fontSize=16;" parent="1" vertex="1">
                    <mxGeometry x="271" y="850" width="70" height="40" as="geometry"/>
                </mxCell>
                <mxCell id="JXwWzpg9c1mC7S7cnMvl-6" value="职位" style="ellipse;whiteSpace=wrap;html=1;fontSize=16;" parent="1" vertex="1">
                    <mxGeometry x="235" y="900" width="70" height="40" as="geometry"/>
                </mxCell>
                <mxCell id="JXwWzpg9c1mC7S7cnMvl-7" value="最后登录" style="ellipse;whiteSpace=wrap;html=1;fontSize=16;" parent="1" vertex="1">
                    <mxGeometry x="121" y="900" width="70" height="40" as="geometry"/>
                </mxCell>
                <mxCell id="JXwWzpg9c1mC7S7cnMvl-8" value="" style="endArrow=none;html=1;fontSize=16;exitX=0.5;exitY=0;exitDx=0;exitDy=0;" parent="1" source="JXwWzpg9c1mC7S7cnMvl-2" target="JXwWzpg9c1mC7S7cnMvl-1" edge="1">
                    <mxGeometry width="50" height="50" relative="1" as="geometry">
                        <mxPoint x="-29" y="760" as="sourcePoint"/>
                        <mxPoint x="21" y="710" as="targetPoint"/>
                    </mxGeometry>
                </mxCell>
                <mxCell id="JXwWzpg9c1mC7S7cnMvl-9" value="" style="endArrow=none;html=1;fontSize=16;exitX=0.5;exitY=0;exitDx=0;exitDy=0;entryX=0.5;entryY=1;entryDx=0;entryDy=0;" parent="1" source="JXwWzpg9c1mC7S7cnMvl-3" target="JXwWzpg9c1mC7S7cnMvl-1" edge="1">
                    <mxGeometry width="50" height="50" relative="1" as="geometry">
                        <mxPoint x="-29" y="760" as="sourcePoint"/>
                        <mxPoint x="21" y="710" as="targetPoint"/>
                    </mxGeometry>
                </mxCell>
                <mxCell id="JXwWzpg9c1mC7S7cnMvl-10" value="" style="endArrow=none;html=1;fontSize=16;exitX=0.5;exitY=0;exitDx=0;exitDy=0;entryX=1;entryY=1;entryDx=0;entryDy=0;" parent="1" source="JXwWzpg9c1mC7S7cnMvl-5" target="JXwWzpg9c1mC7S7cnMvl-1" edge="1">
                    <mxGeometry width="50" height="50" relative="1" as="geometry">
                        <mxPoint x="-29" y="760" as="sourcePoint"/>
                        <mxPoint x="21" y="710" as="targetPoint"/>
                    </mxGeometry>
                </mxCell>
                <mxCell id="JXwWzpg9c1mC7S7cnMvl-12" value="" style="endArrow=none;html=1;fontSize=16;exitX=0.5;exitY=0;exitDx=0;exitDy=0;entryX=0.25;entryY=1;entryDx=0;entryDy=0;" parent="1" source="JXwWzpg9c1mC7S7cnMvl-7" target="JXwWzpg9c1mC7S7cnMvl-1" edge="1">
                    <mxGeometry width="50" height="50" relative="1" as="geometry">
                        <mxPoint x="-29" y="760" as="sourcePoint"/>
                        <mxPoint x="21" y="710" as="targetPoint"/>
                    </mxGeometry>
                </mxCell>
                <mxCell id="JXwWzpg9c1mC7S7cnMvl-13" value="" style="endArrow=none;html=1;fontSize=16;exitX=0.5;exitY=0;exitDx=0;exitDy=0;entryX=0.75;entryY=1;entryDx=0;entryDy=0;" parent="1" source="JXwWzpg9c1mC7S7cnMvl-6" target="JXwWzpg9c1mC7S7cnMvl-1" edge="1">
                    <mxGeometry width="50" height="50" relative="1" as="geometry">
                        <mxPoint x="-29" y="760" as="sourcePoint"/>
                        <mxPoint x="21" y="710" as="targetPoint"/>
                    </mxGeometry>
                </mxCell>
                <mxCell id="KFb7UtQfd_L8fTQV8ZhR-1" value="&lt;font style=&quot;font-size: 16px;&quot;&gt;打卡&lt;/font&gt;" style="rounded=0;whiteSpace=wrap;html=1;" parent="1" vertex="1">
                    <mxGeometry x="96" y="440" width="80" height="40" as="geometry"/>
                </mxCell>
                <mxCell id="KFb7UtQfd_L8fTQV8ZhR-2" value="时间" style="ellipse;whiteSpace=wrap;html=1;fontSize=16;" parent="1" vertex="1">
                    <mxGeometry x="11" y="390" width="70" height="40" as="geometry"/>
                </mxCell>
                <mxCell id="KFb7UtQfd_L8fTQV8ZhR-3" value="描述" style="ellipse;whiteSpace=wrap;html=1;fontSize=16;" parent="1" vertex="1">
                    <mxGeometry x="11" y="490" width="70" height="40" as="geometry"/>
                </mxCell>
                <mxCell id="KFb7UtQfd_L8fTQV8ZhR-4" value="类型" style="ellipse;whiteSpace=wrap;html=1;fontSize=16;" parent="1" vertex="1">
                    <mxGeometry x="186" y="390" width="70" height="40" as="geometry"/>
                </mxCell>
                <mxCell id="KFb7UtQfd_L8fTQV8ZhR-5" value="标识" style="ellipse;whiteSpace=wrap;html=1;fontSize=16;" parent="1" vertex="1">
                    <mxGeometry x="186" y="490" width="70" height="40" as="geometry"/>
                </mxCell>
                <mxCell id="KFb7UtQfd_L8fTQV8ZhR-6" value="" style="endArrow=none;html=1;fontSize=16;exitX=1;exitY=1;exitDx=0;exitDy=0;" parent="1" source="KFb7UtQfd_L8fTQV8ZhR-2" target="KFb7UtQfd_L8fTQV8ZhR-1" edge="1">
                    <mxGeometry width="50" height="50" relative="1" as="geometry">
                        <mxPoint x="417" y="480" as="sourcePoint"/>
                        <mxPoint x="467" y="430" as="targetPoint"/>
                    </mxGeometry>
                </mxCell>
                <mxCell id="KFb7UtQfd_L8fTQV8ZhR-7" value="" style="endArrow=none;html=1;fontSize=16;exitX=1;exitY=0;exitDx=0;exitDy=0;" parent="1" source="KFb7UtQfd_L8fTQV8ZhR-1" target="KFb7UtQfd_L8fTQV8ZhR-4" edge="1">
                    <mxGeometry width="50" height="50" relative="1" as="geometry">
                        <mxPoint x="417" y="480" as="sourcePoint"/>
                        <mxPoint x="467" y="430" as="targetPoint"/>
                    </mxGeometry>
                </mxCell>
                <mxCell id="KFb7UtQfd_L8fTQV8ZhR-8" value="" style="endArrow=none;html=1;fontSize=16;exitX=1;exitY=0;exitDx=0;exitDy=0;" parent="1" source="KFb7UtQfd_L8fTQV8ZhR-3" target="KFb7UtQfd_L8fTQV8ZhR-1" edge="1">
                    <mxGeometry width="50" height="50" relative="1" as="geometry">
                        <mxPoint x="417" y="480" as="sourcePoint"/>
                        <mxPoint x="467" y="430" as="targetPoint"/>
                    </mxGeometry>
                </mxCell>
                <mxCell id="KFb7UtQfd_L8fTQV8ZhR-9" value="" style="endArrow=none;html=1;fontSize=16;" parent="1" target="KFb7UtQfd_L8fTQV8ZhR-5" edge="1">
                    <mxGeometry width="50" height="50" relative="1" as="geometry">
                        <mxPoint x="177" y="480" as="sourcePoint"/>
                        <mxPoint x="467" y="430" as="targetPoint"/>
                    </mxGeometry>
                </mxCell>
                <mxCell id="KFb7UtQfd_L8fTQV8ZhR-10" value="&lt;font style=&quot;font-size: 16px;&quot;&gt;请假&lt;/font&gt;" style="rounded=0;whiteSpace=wrap;html=1;" parent="1" vertex="1">
                    <mxGeometry x="379" y="445" width="80" height="40" as="geometry"/>
                </mxCell>
                <mxCell id="KFb7UtQfd_L8fTQV8ZhR-11" value="时段" style="ellipse;whiteSpace=wrap;html=1;fontSize=16;" parent="1" vertex="1">
                    <mxGeometry x="294" y="395" width="70" height="40" as="geometry"/>
                </mxCell>
                <mxCell id="KFb7UtQfd_L8fTQV8ZhR-12" value="描述" style="ellipse;whiteSpace=wrap;html=1;fontSize=16;" parent="1" vertex="1">
                    <mxGeometry x="294" y="495" width="70" height="40" as="geometry"/>
                </mxCell>
                <mxCell id="KFb7UtQfd_L8fTQV8ZhR-13" value="类型" style="ellipse;whiteSpace=wrap;html=1;fontSize=16;" parent="1" vertex="1">
                    <mxGeometry x="469" y="395" width="70" height="40" as="geometry"/>
                </mxCell>
                <mxCell id="KFb7UtQfd_L8fTQV8ZhR-14" value="标识" style="ellipse;whiteSpace=wrap;html=1;fontSize=16;" parent="1" vertex="1">
                    <mxGeometry x="469" y="495" width="70" height="40" as="geometry"/>
                </mxCell>
                <mxCell id="KFb7UtQfd_L8fTQV8ZhR-15" value="" style="endArrow=none;html=1;fontSize=16;exitX=1;exitY=1;exitDx=0;exitDy=0;" parent="1" source="KFb7UtQfd_L8fTQV8ZhR-11" target="KFb7UtQfd_L8fTQV8ZhR-10" edge="1">
                    <mxGeometry width="50" height="50" relative="1" as="geometry">
                        <mxPoint x="700" y="485" as="sourcePoint"/>
                        <mxPoint x="750" y="435" as="targetPoint"/>
                    </mxGeometry>
                </mxCell>
                <mxCell id="KFb7UtQfd_L8fTQV8ZhR-16" value="" style="endArrow=none;html=1;fontSize=16;exitX=1;exitY=0;exitDx=0;exitDy=0;" parent="1" source="KFb7UtQfd_L8fTQV8ZhR-10" target="KFb7UtQfd_L8fTQV8ZhR-13" edge="1">
                    <mxGeometry width="50" height="50" relative="1" as="geometry">
                        <mxPoint x="700" y="485" as="sourcePoint"/>
                        <mxPoint x="750" y="435" as="targetPoint"/>
                    </mxGeometry>
                </mxCell>
                <mxCell id="KFb7UtQfd_L8fTQV8ZhR-17" value="" style="endArrow=none;html=1;fontSize=16;exitX=1;exitY=0;exitDx=0;exitDy=0;" parent="1" source="KFb7UtQfd_L8fTQV8ZhR-12" target="KFb7UtQfd_L8fTQV8ZhR-10" edge="1">
                    <mxGeometry width="50" height="50" relative="1" as="geometry">
                        <mxPoint x="700" y="485" as="sourcePoint"/>
                        <mxPoint x="750" y="435" as="targetPoint"/>
                    </mxGeometry>
                </mxCell>
                <mxCell id="KFb7UtQfd_L8fTQV8ZhR-18" value="" style="endArrow=none;html=1;fontSize=16;" parent="1" target="KFb7UtQfd_L8fTQV8ZhR-14" edge="1">
                    <mxGeometry width="50" height="50" relative="1" as="geometry">
                        <mxPoint x="460" y="485" as="sourcePoint"/>
                        <mxPoint x="750" y="435" as="targetPoint"/>
                    </mxGeometry>
                </mxCell>
                <mxCell id="KFb7UtQfd_L8fTQV8ZhR-19" value="&lt;font style=&quot;font-size: 16px;&quot;&gt;班次&lt;/font&gt;" style="rounded=0;whiteSpace=wrap;html=1;" parent="1" vertex="1">
                    <mxGeometry x="656" y="440" width="80" height="40" as="geometry"/>
                </mxCell>
                <mxCell id="KFb7UtQfd_L8fTQV8ZhR-20" value="周几" style="ellipse;whiteSpace=wrap;html=1;fontSize=16;" parent="1" vertex="1">
                    <mxGeometry x="571" y="390" width="70" height="40" as="geometry"/>
                </mxCell>
                <mxCell id="KFb7UtQfd_L8fTQV8ZhR-21" value="科室" style="ellipse;whiteSpace=wrap;html=1;fontSize=16;" parent="1" vertex="1">
                    <mxGeometry x="571" y="490" width="70" height="40" as="geometry"/>
                </mxCell>
                <mxCell id="KFb7UtQfd_L8fTQV8ZhR-22" value="上班时间" style="ellipse;whiteSpace=wrap;html=1;fontSize=16;" parent="1" vertex="1">
                    <mxGeometry x="746" y="390" width="70" height="40" as="geometry"/>
                </mxCell>
                <mxCell id="KFb7UtQfd_L8fTQV8ZhR-23" value="下班时间" style="ellipse;whiteSpace=wrap;html=1;fontSize=16;" parent="1" vertex="1">
                    <mxGeometry x="746" y="490" width="70" height="40" as="geometry"/>
                </mxCell>
                <mxCell id="KFb7UtQfd_L8fTQV8ZhR-24" value="" style="endArrow=none;html=1;fontSize=16;exitX=1;exitY=1;exitDx=0;exitDy=0;" parent="1" source="KFb7UtQfd_L8fTQV8ZhR-20" target="KFb7UtQfd_L8fTQV8ZhR-19" edge="1">
                    <mxGeometry width="50" height="50" relative="1" as="geometry">
                        <mxPoint x="977" y="480" as="sourcePoint"/>
                        <mxPoint x="1027" y="430" as="targetPoint"/>
                    </mxGeometry>
                </mxCell>
                <mxCell id="KFb7UtQfd_L8fTQV8ZhR-25" value="" style="endArrow=none;html=1;fontSize=16;exitX=1;exitY=0;exitDx=0;exitDy=0;" parent="1" source="KFb7UtQfd_L8fTQV8ZhR-19" target="KFb7UtQfd_L8fTQV8ZhR-22" edge="1">
                    <mxGeometry width="50" height="50" relative="1" as="geometry">
                        <mxPoint x="977" y="480" as="sourcePoint"/>
                        <mxPoint x="1027" y="430" as="targetPoint"/>
                    </mxGeometry>
                </mxCell>
                <mxCell id="KFb7UtQfd_L8fTQV8ZhR-26" value="" style="endArrow=none;html=1;fontSize=16;exitX=1;exitY=0;exitDx=0;exitDy=0;" parent="1" source="KFb7UtQfd_L8fTQV8ZhR-21" target="KFb7UtQfd_L8fTQV8ZhR-19" edge="1">
                    <mxGeometry width="50" height="50" relative="1" as="geometry">
                        <mxPoint x="977" y="480" as="sourcePoint"/>
                        <mxPoint x="1027" y="430" as="targetPoint"/>
                    </mxGeometry>
                </mxCell>
                <mxCell id="KFb7UtQfd_L8fTQV8ZhR-27" value="" style="endArrow=none;html=1;fontSize=16;" parent="1" target="KFb7UtQfd_L8fTQV8ZhR-23" edge="1">
                    <mxGeometry width="50" height="50" relative="1" as="geometry">
                        <mxPoint x="737" y="480" as="sourcePoint"/>
                        <mxPoint x="1027" y="430" as="targetPoint"/>
                    </mxGeometry>
                </mxCell>
                <mxCell id="vmwzex347zcDjq9u4Bg_-1" value="执行/查看" style="rhombus;whiteSpace=wrap;html=1;fontSize=16;" parent="1" vertex="1">
                    <mxGeometry x="83.5" y="280" width="106" height="60" as="geometry"/>
                </mxCell>
                <mxCell id="vmwzex347zcDjq9u4Bg_-2" value="执行/查看" style="rhombus;whiteSpace=wrap;html=1;fontSize=16;" parent="1" vertex="1">
                    <mxGeometry x="366.5" y="285" width="106" height="60" as="geometry"/>
                </mxCell>
                <mxCell id="vmwzex347zcDjq9u4Bg_-3" value="执行/查看" style="rhombus;whiteSpace=wrap;html=1;fontSize=16;" parent="1" vertex="1">
                    <mxGeometry x="643" y="280" width="106" height="60" as="geometry"/>
                </mxCell>
                <mxCell id="Q4UfYfbk7Y_1Nx1jM-20-1" value="" style="endArrow=none;html=1;fontSize=16;exitX=0.5;exitY=1;exitDx=0;exitDy=0;" parent="1" edge="1">
                    <mxGeometry width="50" height="50" relative="1" as="geometry">
                        <mxPoint x="136" y="340" as="sourcePoint"/>
                        <mxPoint x="136" y="440" as="targetPoint"/>
                    </mxGeometry>
                </mxCell>
                <mxCell id="Q4UfYfbk7Y_1Nx1jM-20-2" value="" style="endArrow=none;html=1;fontSize=16;exitX=0.5;exitY=1;exitDx=0;exitDy=0;" parent="1" edge="1">
                    <mxGeometry width="50" height="50" relative="1" as="geometry">
                        <mxPoint x="419" y="345" as="sourcePoint"/>
                        <mxPoint x="419" y="445" as="targetPoint"/>
                    </mxGeometry>
                </mxCell>
                <mxCell id="Q4UfYfbk7Y_1Nx1jM-20-3" value="" style="endArrow=none;html=1;fontSize=16;exitX=0.5;exitY=1;exitDx=0;exitDy=0;" parent="1" edge="1">
                    <mxGeometry width="50" height="50" relative="1" as="geometry">
                        <mxPoint x="695.5" y="340" as="sourcePoint"/>
                        <mxPoint x="695.5" y="440" as="targetPoint"/>
                    </mxGeometry>
                </mxCell>
                <mxCell id="IzQM2aj0wtnzcyCfIiSl-2" value="" style="endArrow=none;html=1;fontSize=16;exitX=0.5;exitY=0;exitDx=0;exitDy=0;entryX=0.25;entryY=1;entryDx=0;entryDy=0;" parent="1" source="vmwzex347zcDjq9u4Bg_-1" target="poprKnPYcE3O3LBdKCY--1" edge="1">
                    <mxGeometry width="50" height="50" relative="1" as="geometry">
                        <mxPoint x="400" y="320" as="sourcePoint"/>
                        <mxPoint x="450" y="270" as="targetPoint"/>
                    </mxGeometry>
                </mxCell>
                <mxCell id="IzQM2aj0wtnzcyCfIiSl-3" value="" style="endArrow=none;html=1;fontSize=16;exitX=0.5;exitY=1;exitDx=0;exitDy=0;entryX=0.5;entryY=0;entryDx=0;entryDy=0;" parent="1" source="poprKnPYcE3O3LBdKCY--1" target="vmwzex347zcDjq9u4Bg_-2" edge="1">
                    <mxGeometry width="50" height="50" relative="1" as="geometry">
                        <mxPoint x="360" y="230" as="sourcePoint"/>
                        <mxPoint x="360" y="330" as="targetPoint"/>
                    </mxGeometry>
                </mxCell>
                <mxCell id="IzQM2aj0wtnzcyCfIiSl-4" value="" style="endArrow=none;html=1;fontSize=16;exitX=0.75;exitY=1;exitDx=0;exitDy=0;entryX=0.5;entryY=0;entryDx=0;entryDy=0;" parent="1" source="poprKnPYcE3O3LBdKCY--1" target="vmwzex347zcDjq9u4Bg_-3" edge="1">
                    <mxGeometry width="50" height="50" relative="1" as="geometry">
                        <mxPoint x="570" y="200" as="sourcePoint"/>
                        <mxPoint x="570" y="300" as="targetPoint"/>
                    </mxGeometry>
                </mxCell>
                <mxCell id="dmmby5Fj3562WTAKpqSI-1" value="" style="endArrow=none;html=1;fontSize=16;exitX=0.5;exitY=1;exitDx=0;exitDy=0;" parent="1" edge="1">
                    <mxGeometry width="50" height="50" relative="1" as="geometry">
                        <mxPoint x="135.5" y="480" as="sourcePoint"/>
                        <mxPoint x="135.5" y="580" as="targetPoint"/>
                    </mxGeometry>
                </mxCell>
                <mxCell id="dmmby5Fj3562WTAKpqSI-2" value="" style="endArrow=none;html=1;fontSize=16;exitX=0.5;exitY=1;exitDx=0;exitDy=0;" parent="1" edge="1">
                    <mxGeometry width="50" height="50" relative="1" as="geometry">
                        <mxPoint x="419" y="485" as="sourcePoint"/>
                        <mxPoint x="419" y="585" as="targetPoint"/>
                    </mxGeometry>
                </mxCell>
                <mxCell id="dmmby5Fj3562WTAKpqSI-3" value="" style="endArrow=none;html=1;fontSize=16;exitX=0.25;exitY=1;exitDx=0;exitDy=0;entryX=0.5;entryY=0;entryDx=0;entryDy=0;" parent="1" source="KFb7UtQfd_L8fTQV8ZhR-19" target="MI51i7ObkcEQ9Uo0rndC-4" edge="1">
                    <mxGeometry width="50" height="50" relative="1" as="geometry">
                        <mxPoint x="695.5" y="480" as="sourcePoint"/>
                        <mxPoint x="695.5" y="580" as="targetPoint"/>
                    </mxGeometry>
                </mxCell>
                <mxCell id="MI51i7ObkcEQ9Uo0rndC-2" value="管理" style="rhombus;whiteSpace=wrap;html=1;fontSize=16;" parent="1" vertex="1">
                    <mxGeometry x="83.5" y="580" width="106" height="60" as="geometry"/>
                </mxCell>
                <mxCell id="MI51i7ObkcEQ9Uo0rndC-3" value="管理" style="rhombus;whiteSpace=wrap;html=1;fontSize=16;" parent="1" vertex="1">
                    <mxGeometry x="366.5" y="580" width="106" height="60" as="geometry"/>
                </mxCell>
                <mxCell id="MI51i7ObkcEQ9Uo0rndC-4" value="管理" style="rhombus;whiteSpace=wrap;html=1;fontSize=16;" parent="1" vertex="1">
                    <mxGeometry x="581" y="580" width="106" height="60" as="geometry"/>
                </mxCell>
                <mxCell id="MI51i7ObkcEQ9Uo0rndC-5" value="" style="endArrow=none;html=1;fontSize=16;exitX=0;exitY=0;exitDx=0;exitDy=0;entryX=0;entryY=0.25;entryDx=0;entryDy=0;" parent="1" source="JXwWzpg9c1mC7S7cnMvl-4" target="JXwWzpg9c1mC7S7cnMvl-1" edge="1">
                    <mxGeometry width="50" height="50" relative="1" as="geometry">
                        <mxPoint x="-9" y="810" as="sourcePoint"/>
                        <mxPoint x="41" y="760" as="targetPoint"/>
                    </mxGeometry>
                </mxCell>
                <mxCell id="5RUJDFf03oKwc1V7vY8P-1" value="&lt;font style=&quot;font-size: 16px;&quot;&gt;病人&lt;/font&gt;" style="rounded=0;whiteSpace=wrap;html=1;" parent="1" vertex="1">
                    <mxGeometry x="576" y="780" width="80" height="40" as="geometry"/>
                </mxCell>
                <mxCell id="5RUJDFf03oKwc1V7vY8P-2" value="账号" style="ellipse;whiteSpace=wrap;html=1;fontSize=16;" parent="1" vertex="1">
                    <mxGeometry x="406" y="910" width="70" height="40" as="geometry"/>
                </mxCell>
                <mxCell id="5RUJDFf03oKwc1V7vY8P-3" value="密码" style="ellipse;whiteSpace=wrap;html=1;fontSize=16;" parent="1" vertex="1">
                    <mxGeometry x="736" y="910" width="70" height="40" as="geometry"/>
                </mxCell>
                <mxCell id="5RUJDFf03oKwc1V7vY8P-4" value="姓名" style="ellipse;whiteSpace=wrap;html=1;fontSize=16;" parent="1" vertex="1">
                    <mxGeometry x="736" y="820" width="70" height="40" as="geometry"/>
                </mxCell>
                <mxCell id="5RUJDFf03oKwc1V7vY8P-5" value="ID" style="ellipse;whiteSpace=wrap;html=1;fontSize=16;" parent="1" vertex="1">
                    <mxGeometry x="406" y="820" width="70" height="40" as="geometry"/>
                </mxCell>
                <mxCell id="5RUJDFf03oKwc1V7vY8P-6" value="性别" style="ellipse;whiteSpace=wrap;html=1;fontSize=16;" parent="1" vertex="1">
                    <mxGeometry x="526" y="910" width="70" height="40" as="geometry"/>
                </mxCell>
                <mxCell id="5RUJDFf03oKwc1V7vY8P-7" value="年龄" style="ellipse;whiteSpace=wrap;html=1;fontSize=16;" parent="1" vertex="1">
                    <mxGeometry x="636" y="910" width="70" height="40" as="geometry"/>
                </mxCell>
                <mxCell id="5RUJDFf03oKwc1V7vY8P-8" value="电话" style="ellipse;whiteSpace=wrap;html=1;fontSize=16;" parent="1" vertex="1">
                    <mxGeometry x="476" y="860" width="70" height="40" as="geometry"/>
                </mxCell>
                <mxCell id="5RUJDFf03oKwc1V7vY8P-9" value="邮箱" style="ellipse;whiteSpace=wrap;html=1;fontSize=16;" parent="1" vertex="1">
                    <mxGeometry x="581" y="860" width="70" height="40" as="geometry"/>
                </mxCell>
                <mxCell id="5RUJDFf03oKwc1V7vY8P-10" value="医保" style="ellipse;whiteSpace=wrap;html=1;fontSize=16;" parent="1" vertex="1">
                    <mxGeometry x="676" y="860" width="70" height="40" as="geometry"/>
                </mxCell>
                <mxCell id="sJ0GOyXafEdw0v163uD--1" value="" style="endArrow=none;html=1;fontSize=16;exitX=0.5;exitY=0;exitDx=0;exitDy=0;entryX=0;entryY=0;entryDx=0;entryDy=0;" parent="1" source="5RUJDFf03oKwc1V7vY8P-5" target="5RUJDFf03oKwc1V7vY8P-1" edge="1">
                    <mxGeometry width="50" height="50" relative="1" as="geometry">
                        <mxPoint x="410" y="720" as="sourcePoint"/>
                        <mxPoint x="460" y="670" as="targetPoint"/>
                    </mxGeometry>
                </mxCell>
                <mxCell id="sJ0GOyXafEdw0v163uD--2" value="" style="endArrow=none;html=1;fontSize=16;exitX=0.5;exitY=0;exitDx=0;exitDy=0;entryX=0.5;entryY=1;entryDx=0;entryDy=0;" parent="1" source="5RUJDFf03oKwc1V7vY8P-9" target="5RUJDFf03oKwc1V7vY8P-1" edge="1">
                    <mxGeometry width="50" height="50" relative="1" as="geometry">
                        <mxPoint x="410" y="720" as="sourcePoint"/>
                        <mxPoint x="460" y="670" as="targetPoint"/>
                    </mxGeometry>
                </mxCell>
                <mxCell id="sJ0GOyXafEdw0v163uD--3" value="" style="endArrow=none;html=1;fontSize=16;exitX=0.5;exitY=0;exitDx=0;exitDy=0;entryX=1;entryY=0;entryDx=0;entryDy=0;" parent="1" source="5RUJDFf03oKwc1V7vY8P-4" target="5RUJDFf03oKwc1V7vY8P-1" edge="1">
                    <mxGeometry width="50" height="50" relative="1" as="geometry">
                        <mxPoint x="410" y="720" as="sourcePoint"/>
                        <mxPoint x="460" y="670" as="targetPoint"/>
                    </mxGeometry>
                </mxCell>
                <mxCell id="sJ0GOyXafEdw0v163uD--4" value="" style="endArrow=none;html=1;fontSize=16;exitX=0.5;exitY=0;exitDx=0;exitDy=0;entryX=0;entryY=1;entryDx=0;entryDy=0;" parent="1" source="5RUJDFf03oKwc1V7vY8P-8" target="5RUJDFf03oKwc1V7vY8P-1" edge="1">
                    <mxGeometry width="50" height="50" relative="1" as="geometry">
                        <mxPoint x="410" y="720" as="sourcePoint"/>
                        <mxPoint x="460" y="670" as="targetPoint"/>
                    </mxGeometry>
                </mxCell>
                <mxCell id="sJ0GOyXafEdw0v163uD--5" value="" style="endArrow=none;html=1;fontSize=16;exitX=0.5;exitY=0;exitDx=0;exitDy=0;entryX=1;entryY=1;entryDx=0;entryDy=0;" parent="1" source="5RUJDFf03oKwc1V7vY8P-10" target="5RUJDFf03oKwc1V7vY8P-1" edge="1">
                    <mxGeometry width="50" height="50" relative="1" as="geometry">
                        <mxPoint x="410" y="720" as="sourcePoint"/>
                        <mxPoint x="460" y="670" as="targetPoint"/>
                    </mxGeometry>
                </mxCell>
                <mxCell id="sJ0GOyXafEdw0v163uD--6" value="" style="endArrow=none;html=1;fontSize=16;exitX=0;exitY=0;exitDx=0;exitDy=0;entryX=0;entryY=0.25;entryDx=0;entryDy=0;" parent="1" source="5RUJDFf03oKwc1V7vY8P-2" target="5RUJDFf03oKwc1V7vY8P-1" edge="1">
                    <mxGeometry width="50" height="50" relative="1" as="geometry">
                        <mxPoint x="410" y="720" as="sourcePoint"/>
                        <mxPoint x="460" y="670" as="targetPoint"/>
                    </mxGeometry>
                </mxCell>
                <mxCell id="sJ0GOyXafEdw0v163uD--7" value="" style="endArrow=none;html=1;fontSize=16;exitX=1;exitY=0;exitDx=0;exitDy=0;entryX=1;entryY=0.25;entryDx=0;entryDy=0;" parent="1" source="5RUJDFf03oKwc1V7vY8P-3" target="5RUJDFf03oKwc1V7vY8P-1" edge="1">
                    <mxGeometry width="50" height="50" relative="1" as="geometry">
                        <mxPoint x="410" y="720" as="sourcePoint"/>
                        <mxPoint x="460" y="670" as="targetPoint"/>
                    </mxGeometry>
                </mxCell>
                <mxCell id="sJ0GOyXafEdw0v163uD--8" value="" style="endArrow=none;html=1;fontSize=16;entryX=0.25;entryY=1;entryDx=0;entryDy=0;" parent="1" source="5RUJDFf03oKwc1V7vY8P-6" target="5RUJDFf03oKwc1V7vY8P-1" edge="1">
                    <mxGeometry width="50" height="50" relative="1" as="geometry">
                        <mxPoint x="410" y="720" as="sourcePoint"/>
                        <mxPoint x="460" y="670" as="targetPoint"/>
                    </mxGeometry>
                </mxCell>
                <mxCell id="sJ0GOyXafEdw0v163uD--9" value="" style="endArrow=none;html=1;fontSize=16;exitX=0.5;exitY=0;exitDx=0;exitDy=0;entryX=0.75;entryY=1;entryDx=0;entryDy=0;" parent="1" source="5RUJDFf03oKwc1V7vY8P-7" target="5RUJDFf03oKwc1V7vY8P-1" edge="1">
                    <mxGeometry width="50" height="50" relative="1" as="geometry">
                        <mxPoint x="410" y="720" as="sourcePoint"/>
                        <mxPoint x="460" y="670" as="targetPoint"/>
                    </mxGeometry>
                </mxCell>
                <mxCell id="sJ0GOyXafEdw0v163uD--10" value="" style="endArrow=none;html=1;fontSize=16;exitX=0.25;exitY=0;exitDx=0;exitDy=0;entryX=0.5;entryY=1;entryDx=0;entryDy=0;" parent="1" source="JXwWzpg9c1mC7S7cnMvl-1" target="MI51i7ObkcEQ9Uo0rndC-2" edge="1">
                    <mxGeometry width="50" height="50" relative="1" as="geometry">
                        <mxPoint x="410" y="620" as="sourcePoint"/>
                        <mxPoint x="460" y="570" as="targetPoint"/>
                    </mxGeometry>
                </mxCell>
                <mxCell id="sJ0GOyXafEdw0v163uD--11" value="" style="endArrow=none;html=1;fontSize=16;exitX=0.5;exitY=0;exitDx=0;exitDy=0;entryX=0.5;entryY=1;entryDx=0;entryDy=0;" parent="1" source="JXwWzpg9c1mC7S7cnMvl-1" target="MI51i7ObkcEQ9Uo0rndC-3" edge="1">
                    <mxGeometry width="50" height="50" relative="1" as="geometry">
                        <mxPoint x="410" y="620" as="sourcePoint"/>
                        <mxPoint x="460" y="570" as="targetPoint"/>
                    </mxGeometry>
                </mxCell>
                <mxCell id="sJ0GOyXafEdw0v163uD--12" value="查看" style="rhombus;whiteSpace=wrap;html=1;fontSize=16;" parent="1" vertex="1">
                    <mxGeometry x="700" y="580" width="106" height="60" as="geometry"/>
                </mxCell>
                <mxCell id="sJ0GOyXafEdw0v163uD--13" value="" style="endArrow=none;html=1;fontSize=16;exitX=0.5;exitY=0;exitDx=0;exitDy=0;entryX=0.75;entryY=1;entryDx=0;entryDy=0;" parent="1" source="sJ0GOyXafEdw0v163uD--12" target="KFb7UtQfd_L8fTQV8ZhR-19" edge="1">
                    <mxGeometry width="50" height="50" relative="1" as="geometry">
                        <mxPoint x="410" y="620" as="sourcePoint"/>
                        <mxPoint x="460" y="570" as="targetPoint"/>
                    </mxGeometry>
                </mxCell>
                <mxCell id="sJ0GOyXafEdw0v163uD--14" value="" style="endArrow=none;html=1;fontSize=16;exitX=0.75;exitY=0;exitDx=0;exitDy=0;entryX=0.5;entryY=1;entryDx=0;entryDy=0;" parent="1" source="JXwWzpg9c1mC7S7cnMvl-1" target="MI51i7ObkcEQ9Uo0rndC-4" edge="1">
                    <mxGeometry width="50" height="50" relative="1" as="geometry">
                        <mxPoint x="410" y="620" as="sourcePoint"/>
                        <mxPoint x="460" y="570" as="targetPoint"/>
                    </mxGeometry>
                </mxCell>
                <mxCell id="sJ0GOyXafEdw0v163uD--15" value="" style="endArrow=none;html=1;fontSize=16;exitX=0.5;exitY=0;exitDx=0;exitDy=0;entryX=0.5;entryY=1;entryDx=0;entryDy=0;" parent="1" source="5RUJDFf03oKwc1V7vY8P-1" target="sJ0GOyXafEdw0v163uD--12" edge="1">
                    <mxGeometry width="50" height="50" relative="1" as="geometry">
                        <mxPoint x="410" y="720" as="sourcePoint"/>
                        <mxPoint x="460" y="670" as="targetPoint"/>
                    </mxGeometry>
                </mxCell>
            </root>
        </mxGraphModel>
    </diagram>
    <diagram name="E-R图(3)" id="A92v2lo_o-Rb4eOmbD7L">
        <mxGraphModel dx="930" dy="659" grid="1" gridSize="10" guides="1" tooltips="1" connect="1" arrows="1" fold="1" page="1" pageScale="1" pageWidth="827" pageHeight="1169" math="0" shadow="0">
            <root>
                <mxCell id="zbVzGPJccRocd9qN9u0A-0"/>
                <mxCell id="zbVzGPJccRocd9qN9u0A-1" parent="zbVzGPJccRocd9qN9u0A-0"/>
                <mxCell id="zbVzGPJccRocd9qN9u0A-2" value="&lt;span style=&quot;font-size: 16px;&quot;&gt;药品&lt;/span&gt;" style="rounded=0;whiteSpace=wrap;html=1;direction=east;" parent="zbVzGPJccRocd9qN9u0A-1" vertex="1">
                    <mxGeometry x="550" y="150" width="80" height="40" as="geometry"/>
                </mxCell>
                <mxCell id="zbVzGPJccRocd9qN9u0A-3" value="编码" style="ellipse;whiteSpace=wrap;html=1;fontSize=16;" parent="zbVzGPJccRocd9qN9u0A-1" vertex="1">
                    <mxGeometry x="450" y="80" width="70" height="40" as="geometry"/>
                </mxCell>
                <mxCell id="zbVzGPJccRocd9qN9u0A-4" value="名称" style="ellipse;whiteSpace=wrap;html=1;fontSize=16;" parent="zbVzGPJccRocd9qN9u0A-1" vertex="1">
                    <mxGeometry x="555" y="80" width="70" height="40" as="geometry"/>
                </mxCell>
                <mxCell id="zbVzGPJccRocd9qN9u0A-5" value="类型" style="ellipse;whiteSpace=wrap;html=1;fontSize=16;" parent="zbVzGPJccRocd9qN9u0A-1" vertex="1">
                    <mxGeometry x="660" y="80" width="70" height="40" as="geometry"/>
                </mxCell>
                <mxCell id="zbVzGPJccRocd9qN9u0A-6" value="价格" style="ellipse;whiteSpace=wrap;html=1;fontSize=16;" parent="zbVzGPJccRocd9qN9u0A-1" vertex="1">
                    <mxGeometry x="380" y="120" width="70" height="40" as="geometry"/>
                </mxCell>
                <mxCell id="zbVzGPJccRocd9qN9u0A-7" value="规格" style="ellipse;whiteSpace=wrap;html=1;fontSize=16;" parent="zbVzGPJccRocd9qN9u0A-1" vertex="1">
                    <mxGeometry x="730" y="130" width="70" height="40" as="geometry"/>
                </mxCell>
                <mxCell id="zbVzGPJccRocd9qN9u0A-8" value="用量" style="ellipse;whiteSpace=wrap;html=1;fontSize=16;" parent="zbVzGPJccRocd9qN9u0A-1" vertex="1">
                    <mxGeometry x="730" y="30" width="70" height="40" as="geometry"/>
                </mxCell>
                <mxCell id="zbVzGPJccRocd9qN9u0A-9" value="厂家" style="ellipse;whiteSpace=wrap;html=1;fontSize=16;" parent="zbVzGPJccRocd9qN9u0A-1" vertex="1">
                    <mxGeometry x="500" y="30" width="70" height="40" as="geometry"/>
                </mxCell>
                <mxCell id="zbVzGPJccRocd9qN9u0A-10" value="描述" style="ellipse;whiteSpace=wrap;html=1;fontSize=16;" parent="zbVzGPJccRocd9qN9u0A-1" vertex="1">
                    <mxGeometry x="380" y="30" width="70" height="40" as="geometry"/>
                </mxCell>
                <mxCell id="zbVzGPJccRocd9qN9u0A-11" value="库存" style="ellipse;whiteSpace=wrap;html=1;fontSize=16;" parent="zbVzGPJccRocd9qN9u0A-1" vertex="1">
                    <mxGeometry x="610" y="30" width="70" height="40" as="geometry"/>
                </mxCell>
                <mxCell id="zbVzGPJccRocd9qN9u0A-12" value="" style="endArrow=none;html=1;fontSize=16;entryX=1;entryY=1;entryDx=0;entryDy=0;exitX=0;exitY=1;exitDx=0;exitDy=0;" parent="zbVzGPJccRocd9qN9u0A-1" source="zbVzGPJccRocd9qN9u0A-2" target="zbVzGPJccRocd9qN9u0A-6" edge="1">
                    <mxGeometry width="50" height="50" relative="1" as="geometry">
                        <mxPoint x="400" y="340" as="sourcePoint"/>
                        <mxPoint x="450" y="290" as="targetPoint"/>
                    </mxGeometry>
                </mxCell>
                <mxCell id="zbVzGPJccRocd9qN9u0A-13" value="" style="endArrow=none;html=1;fontSize=16;entryX=1;entryY=1;entryDx=0;entryDy=0;exitX=0;exitY=0.5;exitDx=0;exitDy=0;" parent="zbVzGPJccRocd9qN9u0A-1" source="zbVzGPJccRocd9qN9u0A-7" target="zbVzGPJccRocd9qN9u0A-2" edge="1">
                    <mxGeometry width="50" height="50" relative="1" as="geometry">
                        <mxPoint x="400" y="340" as="sourcePoint"/>
                        <mxPoint x="450" y="290" as="targetPoint"/>
                    </mxGeometry>
                </mxCell>
                <mxCell id="zbVzGPJccRocd9qN9u0A-14" value="" style="endArrow=none;html=1;fontSize=16;entryX=0;entryY=1;entryDx=0;entryDy=0;exitX=0;exitY=0.75;exitDx=0;exitDy=0;" parent="zbVzGPJccRocd9qN9u0A-1" source="zbVzGPJccRocd9qN9u0A-2" target="zbVzGPJccRocd9qN9u0A-10" edge="1">
                    <mxGeometry width="50" height="50" relative="1" as="geometry">
                        <mxPoint x="400" y="340" as="sourcePoint"/>
                        <mxPoint x="450" y="290" as="targetPoint"/>
                    </mxGeometry>
                </mxCell>
                <mxCell id="zbVzGPJccRocd9qN9u0A-15" value="" style="endArrow=none;html=1;fontSize=16;entryX=1;entryY=1;entryDx=0;entryDy=0;exitX=1;exitY=0.75;exitDx=0;exitDy=0;" parent="zbVzGPJccRocd9qN9u0A-1" source="zbVzGPJccRocd9qN9u0A-2" target="zbVzGPJccRocd9qN9u0A-8" edge="1">
                    <mxGeometry width="50" height="50" relative="1" as="geometry">
                        <mxPoint x="660" y="170" as="sourcePoint"/>
                        <mxPoint x="450" y="290" as="targetPoint"/>
                    </mxGeometry>
                </mxCell>
                <mxCell id="zbVzGPJccRocd9qN9u0A-16" value="" style="endArrow=none;html=1;fontSize=16;entryX=0.5;entryY=1;entryDx=0;entryDy=0;exitX=0;exitY=0;exitDx=0;exitDy=0;" parent="zbVzGPJccRocd9qN9u0A-1" source="zbVzGPJccRocd9qN9u0A-2" target="zbVzGPJccRocd9qN9u0A-3" edge="1">
                    <mxGeometry width="50" height="50" relative="1" as="geometry">
                        <mxPoint x="400" y="340" as="sourcePoint"/>
                        <mxPoint x="450" y="290" as="targetPoint"/>
                    </mxGeometry>
                </mxCell>
                <mxCell id="zbVzGPJccRocd9qN9u0A-17" value="" style="endArrow=none;html=1;fontSize=16;entryX=0.5;entryY=1;entryDx=0;entryDy=0;exitX=1;exitY=0;exitDx=0;exitDy=0;" parent="zbVzGPJccRocd9qN9u0A-1" source="zbVzGPJccRocd9qN9u0A-2" target="zbVzGPJccRocd9qN9u0A-5" edge="1">
                    <mxGeometry width="50" height="50" relative="1" as="geometry">
                        <mxPoint x="400" y="340" as="sourcePoint"/>
                        <mxPoint x="450" y="290" as="targetPoint"/>
                    </mxGeometry>
                </mxCell>
                <mxCell id="zbVzGPJccRocd9qN9u0A-18" value="" style="endArrow=none;html=1;fontSize=16;entryX=0.5;entryY=1;entryDx=0;entryDy=0;exitX=0.25;exitY=0;exitDx=0;exitDy=0;" parent="zbVzGPJccRocd9qN9u0A-1" source="zbVzGPJccRocd9qN9u0A-2" target="zbVzGPJccRocd9qN9u0A-9" edge="1">
                    <mxGeometry width="50" height="50" relative="1" as="geometry">
                        <mxPoint x="400" y="340" as="sourcePoint"/>
                        <mxPoint x="450" y="290" as="targetPoint"/>
                    </mxGeometry>
                </mxCell>
                <mxCell id="zbVzGPJccRocd9qN9u0A-19" value="" style="endArrow=none;html=1;fontSize=16;entryX=0.5;entryY=1;entryDx=0;entryDy=0;exitX=0.75;exitY=0;exitDx=0;exitDy=0;" parent="zbVzGPJccRocd9qN9u0A-1" source="zbVzGPJccRocd9qN9u0A-2" target="zbVzGPJccRocd9qN9u0A-11" edge="1">
                    <mxGeometry width="50" height="50" relative="1" as="geometry">
                        <mxPoint x="400" y="340" as="sourcePoint"/>
                        <mxPoint x="450" y="290" as="targetPoint"/>
                    </mxGeometry>
                </mxCell>
                <mxCell id="zbVzGPJccRocd9qN9u0A-20" value="" style="endArrow=none;html=1;fontSize=16;entryX=0.5;entryY=1;entryDx=0;entryDy=0;exitX=0.5;exitY=0;exitDx=0;exitDy=0;" parent="zbVzGPJccRocd9qN9u0A-1" source="zbVzGPJccRocd9qN9u0A-2" target="zbVzGPJccRocd9qN9u0A-4" edge="1">
                    <mxGeometry width="50" height="50" relative="1" as="geometry">
                        <mxPoint x="400" y="340" as="sourcePoint"/>
                        <mxPoint x="450" y="290" as="targetPoint"/>
                    </mxGeometry>
                </mxCell>
                <mxCell id="zbVzGPJccRocd9qN9u0A-21" value="&lt;font style=&quot;font-size: 16px;&quot;&gt;挂号&lt;/font&gt;" style="rounded=0;whiteSpace=wrap;html=1;" parent="zbVzGPJccRocd9qN9u0A-1" vertex="1">
                    <mxGeometry x="605" y="450" width="80" height="40" as="geometry"/>
                </mxCell>
                <mxCell id="zbVzGPJccRocd9qN9u0A-22" value="时间" style="ellipse;whiteSpace=wrap;html=1;fontSize=16;" parent="zbVzGPJccRocd9qN9u0A-1" vertex="1">
                    <mxGeometry x="520" y="400" width="70" height="40" as="geometry"/>
                </mxCell>
                <mxCell id="zbVzGPJccRocd9qN9u0A-23" value="科室" style="ellipse;whiteSpace=wrap;html=1;fontSize=16;" parent="zbVzGPJccRocd9qN9u0A-1" vertex="1">
                    <mxGeometry x="520" y="500" width="70" height="40" as="geometry"/>
                </mxCell>
                <mxCell id="zbVzGPJccRocd9qN9u0A-24" value="号次" style="ellipse;whiteSpace=wrap;html=1;fontSize=16;" parent="zbVzGPJccRocd9qN9u0A-1" vertex="1">
                    <mxGeometry x="695" y="400" width="70" height="40" as="geometry"/>
                </mxCell>
                <mxCell id="zbVzGPJccRocd9qN9u0A-25" value="标识" style="ellipse;whiteSpace=wrap;html=1;fontSize=16;" parent="zbVzGPJccRocd9qN9u0A-1" vertex="1">
                    <mxGeometry x="695" y="500" width="70" height="40" as="geometry"/>
                </mxCell>
                <mxCell id="zbVzGPJccRocd9qN9u0A-26" value="" style="endArrow=none;html=1;fontSize=16;exitX=1;exitY=1;exitDx=0;exitDy=0;" parent="zbVzGPJccRocd9qN9u0A-1" source="zbVzGPJccRocd9qN9u0A-22" target="zbVzGPJccRocd9qN9u0A-21" edge="1">
                    <mxGeometry width="50" height="50" relative="1" as="geometry">
                        <mxPoint x="926" y="490" as="sourcePoint"/>
                        <mxPoint x="976" y="440" as="targetPoint"/>
                    </mxGeometry>
                </mxCell>
                <mxCell id="zbVzGPJccRocd9qN9u0A-27" value="" style="endArrow=none;html=1;fontSize=16;exitX=1;exitY=0;exitDx=0;exitDy=0;" parent="zbVzGPJccRocd9qN9u0A-1" source="zbVzGPJccRocd9qN9u0A-21" target="zbVzGPJccRocd9qN9u0A-24" edge="1">
                    <mxGeometry width="50" height="50" relative="1" as="geometry">
                        <mxPoint x="926" y="490" as="sourcePoint"/>
                        <mxPoint x="976" y="440" as="targetPoint"/>
                    </mxGeometry>
                </mxCell>
                <mxCell id="zbVzGPJccRocd9qN9u0A-28" value="" style="endArrow=none;html=1;fontSize=16;exitX=1;exitY=0;exitDx=0;exitDy=0;" parent="zbVzGPJccRocd9qN9u0A-1" source="zbVzGPJccRocd9qN9u0A-23" target="zbVzGPJccRocd9qN9u0A-21" edge="1">
                    <mxGeometry width="50" height="50" relative="1" as="geometry">
                        <mxPoint x="926" y="490" as="sourcePoint"/>
                        <mxPoint x="976" y="440" as="targetPoint"/>
                    </mxGeometry>
                </mxCell>
                <mxCell id="zbVzGPJccRocd9qN9u0A-29" value="" style="endArrow=none;html=1;fontSize=16;" parent="zbVzGPJccRocd9qN9u0A-1" target="zbVzGPJccRocd9qN9u0A-25" edge="1">
                    <mxGeometry width="50" height="50" relative="1" as="geometry">
                        <mxPoint x="686" y="490" as="sourcePoint"/>
                        <mxPoint x="976" y="440" as="targetPoint"/>
                    </mxGeometry>
                </mxCell>
                <mxCell id="zbVzGPJccRocd9qN9u0A-30" value="&lt;font style=&quot;font-size: 16px;&quot;&gt;检测&lt;/font&gt;" style="rounded=0;whiteSpace=wrap;html=1;" parent="zbVzGPJccRocd9qN9u0A-1" vertex="1">
                    <mxGeometry x="165" y="150" width="80" height="40" as="geometry"/>
                </mxCell>
                <mxCell id="zbVzGPJccRocd9qN9u0A-31" value="名称" style="ellipse;whiteSpace=wrap;html=1;fontSize=16;" parent="zbVzGPJccRocd9qN9u0A-1" vertex="1">
                    <mxGeometry x="80" y="100" width="70" height="40" as="geometry"/>
                </mxCell>
                <mxCell id="zbVzGPJccRocd9qN9u0A-32" value="耗时" style="ellipse;whiteSpace=wrap;html=1;fontSize=16;" parent="zbVzGPJccRocd9qN9u0A-1" vertex="1">
                    <mxGeometry x="80" y="200" width="70" height="40" as="geometry"/>
                </mxCell>
                <mxCell id="zbVzGPJccRocd9qN9u0A-33" value="类型" style="ellipse;whiteSpace=wrap;html=1;fontSize=16;" parent="zbVzGPJccRocd9qN9u0A-1" vertex="1">
                    <mxGeometry x="255" y="100" width="70" height="40" as="geometry"/>
                </mxCell>
                <mxCell id="zbVzGPJccRocd9qN9u0A-34" value="费用" style="ellipse;whiteSpace=wrap;html=1;fontSize=16;" parent="zbVzGPJccRocd9qN9u0A-1" vertex="1">
                    <mxGeometry x="255" y="200" width="70" height="40" as="geometry"/>
                </mxCell>
                <mxCell id="zbVzGPJccRocd9qN9u0A-35" value="" style="endArrow=none;html=1;fontSize=16;exitX=1;exitY=1;exitDx=0;exitDy=0;" parent="zbVzGPJccRocd9qN9u0A-1" source="zbVzGPJccRocd9qN9u0A-31" target="zbVzGPJccRocd9qN9u0A-30" edge="1">
                    <mxGeometry width="50" height="50" relative="1" as="geometry">
                        <mxPoint x="486" y="190" as="sourcePoint"/>
                        <mxPoint x="536" y="140" as="targetPoint"/>
                    </mxGeometry>
                </mxCell>
                <mxCell id="zbVzGPJccRocd9qN9u0A-36" value="" style="endArrow=none;html=1;fontSize=16;exitX=1;exitY=0;exitDx=0;exitDy=0;" parent="zbVzGPJccRocd9qN9u0A-1" source="zbVzGPJccRocd9qN9u0A-30" target="zbVzGPJccRocd9qN9u0A-33" edge="1">
                    <mxGeometry width="50" height="50" relative="1" as="geometry">
                        <mxPoint x="486" y="190" as="sourcePoint"/>
                        <mxPoint x="536" y="140" as="targetPoint"/>
                    </mxGeometry>
                </mxCell>
                <mxCell id="zbVzGPJccRocd9qN9u0A-37" value="" style="endArrow=none;html=1;fontSize=16;exitX=1;exitY=0;exitDx=0;exitDy=0;" parent="zbVzGPJccRocd9qN9u0A-1" source="zbVzGPJccRocd9qN9u0A-32" target="zbVzGPJccRocd9qN9u0A-30" edge="1">
                    <mxGeometry width="50" height="50" relative="1" as="geometry">
                        <mxPoint x="486" y="190" as="sourcePoint"/>
                        <mxPoint x="536" y="140" as="targetPoint"/>
                    </mxGeometry>
                </mxCell>
                <mxCell id="zbVzGPJccRocd9qN9u0A-38" value="" style="endArrow=none;html=1;fontSize=16;" parent="zbVzGPJccRocd9qN9u0A-1" target="zbVzGPJccRocd9qN9u0A-34" edge="1">
                    <mxGeometry width="50" height="50" relative="1" as="geometry">
                        <mxPoint x="246" y="190" as="sourcePoint"/>
                        <mxPoint x="536" y="140" as="targetPoint"/>
                    </mxGeometry>
                </mxCell>
                <mxCell id="zbVzGPJccRocd9qN9u0A-39" value="&lt;font style=&quot;font-size: 16px;&quot;&gt;预约&lt;/font&gt;" style="rounded=0;whiteSpace=wrap;html=1;" parent="zbVzGPJccRocd9qN9u0A-1" vertex="1">
                    <mxGeometry x="115" y="450" width="80" height="40" as="geometry"/>
                </mxCell>
                <mxCell id="zbVzGPJccRocd9qN9u0A-40" value="时段" style="ellipse;whiteSpace=wrap;html=1;fontSize=16;" parent="zbVzGPJccRocd9qN9u0A-1" vertex="1">
                    <mxGeometry x="30" y="400" width="70" height="40" as="geometry"/>
                </mxCell>
                <mxCell id="zbVzGPJccRocd9qN9u0A-41" value="科室" style="ellipse;whiteSpace=wrap;html=1;fontSize=16;" parent="zbVzGPJccRocd9qN9u0A-1" vertex="1">
                    <mxGeometry x="207.5" y="400" width="70" height="40" as="geometry"/>
                </mxCell>
                <mxCell id="zbVzGPJccRocd9qN9u0A-42" value="号次" style="ellipse;whiteSpace=wrap;html=1;fontSize=16;" parent="zbVzGPJccRocd9qN9u0A-1" vertex="1">
                    <mxGeometry x="30" y="500" width="70" height="40" as="geometry"/>
                </mxCell>
                <mxCell id="zbVzGPJccRocd9qN9u0A-43" value="标识" style="ellipse;whiteSpace=wrap;html=1;fontSize=16;" parent="zbVzGPJccRocd9qN9u0A-1" vertex="1">
                    <mxGeometry x="207.5" y="500" width="70" height="40" as="geometry"/>
                </mxCell>
                <mxCell id="zbVzGPJccRocd9qN9u0A-44" value="" style="endArrow=none;html=1;fontSize=16;exitX=1;exitY=1;exitDx=0;exitDy=0;" parent="zbVzGPJccRocd9qN9u0A-1" source="zbVzGPJccRocd9qN9u0A-40" target="zbVzGPJccRocd9qN9u0A-39" edge="1">
                    <mxGeometry width="50" height="50" relative="1" as="geometry">
                        <mxPoint x="156" y="490" as="sourcePoint"/>
                        <mxPoint x="206" y="440" as="targetPoint"/>
                    </mxGeometry>
                </mxCell>
                <mxCell id="zbVzGPJccRocd9qN9u0A-45" value="" style="endArrow=none;html=1;fontSize=16;entryX=0;entryY=1;entryDx=0;entryDy=0;" parent="zbVzGPJccRocd9qN9u0A-1" target="zbVzGPJccRocd9qN9u0A-41" edge="1">
                    <mxGeometry width="50" height="50" relative="1" as="geometry">
                        <mxPoint x="196" y="450" as="sourcePoint"/>
                        <mxPoint x="206" y="440" as="targetPoint"/>
                    </mxGeometry>
                </mxCell>
                <mxCell id="zbVzGPJccRocd9qN9u0A-46" value="" style="endArrow=none;html=1;fontSize=16;entryX=0;entryY=1;entryDx=0;entryDy=0;" parent="zbVzGPJccRocd9qN9u0A-1" source="zbVzGPJccRocd9qN9u0A-42" target="zbVzGPJccRocd9qN9u0A-39" edge="1">
                    <mxGeometry width="50" height="50" relative="1" as="geometry">
                        <mxPoint x="156" y="490" as="sourcePoint"/>
                        <mxPoint x="206" y="440" as="targetPoint"/>
                    </mxGeometry>
                </mxCell>
                <mxCell id="zbVzGPJccRocd9qN9u0A-47" value="" style="endArrow=none;html=1;fontSize=16;exitX=1;exitY=1;exitDx=0;exitDy=0;entryX=0;entryY=0;entryDx=0;entryDy=0;" parent="zbVzGPJccRocd9qN9u0A-1" source="zbVzGPJccRocd9qN9u0A-39" target="zbVzGPJccRocd9qN9u0A-43" edge="1">
                    <mxGeometry width="50" height="50" relative="1" as="geometry">
                        <mxPoint x="156" y="490" as="sourcePoint"/>
                        <mxPoint x="206" y="440" as="targetPoint"/>
                    </mxGeometry>
                </mxCell>
                <mxCell id="zbVzGPJccRocd9qN9u0A-48" value="&lt;span style=&quot;font-size: 16px;&quot;&gt;缴费账单&lt;/span&gt;" style="rounded=0;whiteSpace=wrap;html=1;" parent="zbVzGPJccRocd9qN9u0A-1" vertex="1">
                    <mxGeometry x="360" y="580" width="80" height="40" as="geometry"/>
                </mxCell>
                <mxCell id="zbVzGPJccRocd9qN9u0A-49" value="&lt;font style=&quot;font-size: 16px;&quot;&gt;医生&lt;/font&gt;" style="rounded=0;whiteSpace=wrap;html=1;" parent="zbVzGPJccRocd9qN9u0A-1" vertex="1">
                    <mxGeometry x="360" y="400" width="80" height="40" as="geometry"/>
                </mxCell>
                <mxCell id="zbVzGPJccRocd9qN9u0A-50" value="执行/查看" style="rhombus;whiteSpace=wrap;html=1;fontSize=16;" parent="zbVzGPJccRocd9qN9u0A-1" vertex="1">
                    <mxGeometry x="150" y="290" width="106" height="60" as="geometry"/>
                </mxCell>
                <mxCell id="zbVzGPJccRocd9qN9u0A-51" value="" style="endArrow=none;html=1;fontSize=16;exitX=0.5;exitY=1;exitDx=0;exitDy=0;" parent="zbVzGPJccRocd9qN9u0A-1" edge="1">
                    <mxGeometry width="50" height="50" relative="1" as="geometry">
                        <mxPoint x="204.5" y="190" as="sourcePoint"/>
                        <mxPoint x="204.5" y="290" as="targetPoint"/>
                    </mxGeometry>
                </mxCell>
                <mxCell id="zbVzGPJccRocd9qN9u0A-52" value="" style="endArrow=none;html=1;fontSize=16;exitX=0.5;exitY=1;exitDx=0;exitDy=0;" parent="zbVzGPJccRocd9qN9u0A-1" edge="1">
                    <mxGeometry width="50" height="50" relative="1" as="geometry">
                        <mxPoint x="589.5" y="190" as="sourcePoint"/>
                        <mxPoint x="589.5" y="290" as="targetPoint"/>
                    </mxGeometry>
                </mxCell>
                <mxCell id="zbVzGPJccRocd9qN9u0A-53" value="执行/查看" style="rhombus;whiteSpace=wrap;html=1;fontSize=16;" parent="zbVzGPJccRocd9qN9u0A-1" vertex="1">
                    <mxGeometry x="537" y="290" width="106" height="60" as="geometry"/>
                </mxCell>
                <mxCell id="zbVzGPJccRocd9qN9u0A-54" value="" style="endArrow=none;html=1;fontSize=16;entryX=0.5;entryY=1;entryDx=0;entryDy=0;exitX=0.25;exitY=0;exitDx=0;exitDy=0;" parent="zbVzGPJccRocd9qN9u0A-1" source="zbVzGPJccRocd9qN9u0A-49" target="zbVzGPJccRocd9qN9u0A-50" edge="1">
                    <mxGeometry width="50" height="50" relative="1" as="geometry">
                        <mxPoint x="270" y="440" as="sourcePoint"/>
                        <mxPoint x="490" y="320" as="targetPoint"/>
                    </mxGeometry>
                </mxCell>
                <mxCell id="zbVzGPJccRocd9qN9u0A-55" value="" style="endArrow=none;html=1;fontSize=16;entryX=0.5;entryY=1;entryDx=0;entryDy=0;exitX=0.75;exitY=0;exitDx=0;exitDy=0;" parent="zbVzGPJccRocd9qN9u0A-1" source="zbVzGPJccRocd9qN9u0A-49" target="zbVzGPJccRocd9qN9u0A-53" edge="1">
                    <mxGeometry width="50" height="50" relative="1" as="geometry">
                        <mxPoint x="440" y="370" as="sourcePoint"/>
                        <mxPoint x="490" y="320" as="targetPoint"/>
                    </mxGeometry>
                </mxCell>
                <mxCell id="zbVzGPJccRocd9qN9u0A-56" value="" style="endArrow=none;html=1;fontSize=16;entryX=0.5;entryY=1;entryDx=0;entryDy=0;" parent="zbVzGPJccRocd9qN9u0A-1" target="zbVzGPJccRocd9qN9u0A-49" edge="1">
                    <mxGeometry width="50" height="50" relative="1" as="geometry">
                        <mxPoint x="400" y="480" as="sourcePoint"/>
                        <mxPoint x="490" y="520" as="targetPoint"/>
                    </mxGeometry>
                </mxCell>
                <mxCell id="zbVzGPJccRocd9qN9u0A-57" value="写入" style="rhombus;whiteSpace=wrap;html=1;fontSize=16;" parent="zbVzGPJccRocd9qN9u0A-1" vertex="1">
                    <mxGeometry x="347" y="480" width="106" height="60" as="geometry"/>
                </mxCell>
                <mxCell id="zbVzGPJccRocd9qN9u0A-58" value="" style="endArrow=none;html=1;fontSize=16;entryX=0.5;entryY=1;entryDx=0;entryDy=0;exitX=0.5;exitY=0;exitDx=0;exitDy=0;" parent="zbVzGPJccRocd9qN9u0A-1" source="zbVzGPJccRocd9qN9u0A-48" edge="1">
                    <mxGeometry width="50" height="50" relative="1" as="geometry">
                        <mxPoint x="400" y="580" as="sourcePoint"/>
                        <mxPoint x="399.5" y="540" as="targetPoint"/>
                    </mxGeometry>
                </mxCell>
                <mxCell id="zbVzGPJccRocd9qN9u0A-59" value="写入" style="rhombus;whiteSpace=wrap;html=1;fontSize=16;" parent="zbVzGPJccRocd9qN9u0A-1" vertex="1">
                    <mxGeometry x="102" y="540" width="106" height="60" as="geometry"/>
                </mxCell>
                <mxCell id="zbVzGPJccRocd9qN9u0A-60" value="写入" style="rhombus;whiteSpace=wrap;html=1;fontSize=16;" parent="zbVzGPJccRocd9qN9u0A-1" vertex="1">
                    <mxGeometry x="592" y="540" width="106" height="60" as="geometry"/>
                </mxCell>
                <mxCell id="zbVzGPJccRocd9qN9u0A-61" value="" style="endArrow=none;html=1;fontSize=16;entryX=0.5;entryY=1;entryDx=0;entryDy=0;exitX=0.5;exitY=0;exitDx=0;exitDy=0;" parent="zbVzGPJccRocd9qN9u0A-1" source="zbVzGPJccRocd9qN9u0A-59" target="zbVzGPJccRocd9qN9u0A-39" edge="1">
                    <mxGeometry width="50" height="50" relative="1" as="geometry">
                        <mxPoint x="440" y="470" as="sourcePoint"/>
                        <mxPoint x="490" y="420" as="targetPoint"/>
                    </mxGeometry>
                </mxCell>
                <mxCell id="zbVzGPJccRocd9qN9u0A-62" value="" style="endArrow=none;html=1;fontSize=16;entryX=0.5;entryY=1;entryDx=0;entryDy=0;exitX=0.5;exitY=0;exitDx=0;exitDy=0;" parent="zbVzGPJccRocd9qN9u0A-1" source="zbVzGPJccRocd9qN9u0A-60" target="zbVzGPJccRocd9qN9u0A-21" edge="1">
                    <mxGeometry width="50" height="50" relative="1" as="geometry">
                        <mxPoint x="440" y="470" as="sourcePoint"/>
                        <mxPoint x="490" y="420" as="targetPoint"/>
                    </mxGeometry>
                </mxCell>
                <mxCell id="zbVzGPJccRocd9qN9u0A-63" value="" style="endArrow=none;html=1;fontSize=16;exitX=1;exitY=0.5;exitDx=0;exitDy=0;entryX=0;entryY=0.5;entryDx=0;entryDy=0;" parent="zbVzGPJccRocd9qN9u0A-1" source="zbVzGPJccRocd9qN9u0A-59" target="zbVzGPJccRocd9qN9u0A-48" edge="1">
                    <mxGeometry width="50" height="50" relative="1" as="geometry">
                        <mxPoint x="440" y="470" as="sourcePoint"/>
                        <mxPoint x="490" y="420" as="targetPoint"/>
                    </mxGeometry>
                </mxCell>
                <mxCell id="zbVzGPJccRocd9qN9u0A-64" value="" style="endArrow=none;html=1;fontSize=16;entryX=0;entryY=0.5;entryDx=0;entryDy=0;exitX=1;exitY=0.5;exitDx=0;exitDy=0;" parent="zbVzGPJccRocd9qN9u0A-1" source="zbVzGPJccRocd9qN9u0A-48" target="zbVzGPJccRocd9qN9u0A-60" edge="1">
                    <mxGeometry width="50" height="50" relative="1" as="geometry">
                        <mxPoint x="440" y="470" as="sourcePoint"/>
                        <mxPoint x="490" y="420" as="targetPoint"/>
                    </mxGeometry>
                </mxCell>
                <mxCell id="zbVzGPJccRocd9qN9u0A-65" value="缴费" style="rhombus;whiteSpace=wrap;html=1;fontSize=16;" parent="zbVzGPJccRocd9qN9u0A-1" vertex="1">
                    <mxGeometry x="347" y="660" width="106" height="60" as="geometry"/>
                </mxCell>
                <mxCell id="zbVzGPJccRocd9qN9u0A-66" value="" style="endArrow=none;html=1;fontSize=16;entryX=0.5;entryY=1;entryDx=0;entryDy=0;exitX=0.5;exitY=0;exitDx=0;exitDy=0;" parent="zbVzGPJccRocd9qN9u0A-1" source="zbVzGPJccRocd9qN9u0A-65" edge="1">
                    <mxGeometry width="50" height="50" relative="1" as="geometry">
                        <mxPoint x="400" y="660" as="sourcePoint"/>
                        <mxPoint x="399.5" y="620" as="targetPoint"/>
                    </mxGeometry>
                </mxCell>
                <mxCell id="zbVzGPJccRocd9qN9u0A-67" value="" style="endArrow=none;html=1;fontSize=16;entryX=0.5;entryY=1;entryDx=0;entryDy=0;exitX=0.5;exitY=0;exitDx=0;exitDy=0;" parent="zbVzGPJccRocd9qN9u0A-1" source="zbVzGPJccRocd9qN9u0A-68" edge="1">
                    <mxGeometry width="50" height="50" relative="1" as="geometry">
                        <mxPoint x="399.5" y="760" as="sourcePoint"/>
                        <mxPoint x="399.5" y="720" as="targetPoint"/>
                    </mxGeometry>
                </mxCell>
                <mxCell id="zbVzGPJccRocd9qN9u0A-68" value="&lt;font style=&quot;font-size: 16px;&quot;&gt;病人&lt;/font&gt;" style="rounded=0;whiteSpace=wrap;html=1;" parent="zbVzGPJccRocd9qN9u0A-1" vertex="1">
                    <mxGeometry x="360" y="760" width="80" height="40" as="geometry"/>
                </mxCell>
                <mxCell id="zbVzGPJccRocd9qN9u0A-69" value="账号" style="ellipse;whiteSpace=wrap;html=1;fontSize=16;" parent="zbVzGPJccRocd9qN9u0A-1" vertex="1">
                    <mxGeometry x="190" y="890" width="70" height="40" as="geometry"/>
                </mxCell>
                <mxCell id="zbVzGPJccRocd9qN9u0A-70" value="密码" style="ellipse;whiteSpace=wrap;html=1;fontSize=16;" parent="zbVzGPJccRocd9qN9u0A-1" vertex="1">
                    <mxGeometry x="520" y="890" width="70" height="40" as="geometry"/>
                </mxCell>
                <mxCell id="zbVzGPJccRocd9qN9u0A-71" value="姓名" style="ellipse;whiteSpace=wrap;html=1;fontSize=16;" parent="zbVzGPJccRocd9qN9u0A-1" vertex="1">
                    <mxGeometry x="520" y="800" width="70" height="40" as="geometry"/>
                </mxCell>
                <mxCell id="zbVzGPJccRocd9qN9u0A-72" value="ID" style="ellipse;whiteSpace=wrap;html=1;fontSize=16;" parent="zbVzGPJccRocd9qN9u0A-1" vertex="1">
                    <mxGeometry x="190" y="800" width="70" height="40" as="geometry"/>
                </mxCell>
                <mxCell id="zbVzGPJccRocd9qN9u0A-73" value="性别" style="ellipse;whiteSpace=wrap;html=1;fontSize=16;" parent="zbVzGPJccRocd9qN9u0A-1" vertex="1">
                    <mxGeometry x="310" y="890" width="70" height="40" as="geometry"/>
                </mxCell>
                <mxCell id="zbVzGPJccRocd9qN9u0A-74" value="年龄" style="ellipse;whiteSpace=wrap;html=1;fontSize=16;" parent="zbVzGPJccRocd9qN9u0A-1" vertex="1">
                    <mxGeometry x="420" y="890" width="70" height="40" as="geometry"/>
                </mxCell>
                <mxCell id="zbVzGPJccRocd9qN9u0A-75" value="电话" style="ellipse;whiteSpace=wrap;html=1;fontSize=16;" parent="zbVzGPJccRocd9qN9u0A-1" vertex="1">
                    <mxGeometry x="260" y="840" width="70" height="40" as="geometry"/>
                </mxCell>
                <mxCell id="zbVzGPJccRocd9qN9u0A-76" value="邮箱" style="ellipse;whiteSpace=wrap;html=1;fontSize=16;" parent="zbVzGPJccRocd9qN9u0A-1" vertex="1">
                    <mxGeometry x="365" y="840" width="70" height="40" as="geometry"/>
                </mxCell>
                <mxCell id="zbVzGPJccRocd9qN9u0A-77" value="医保" style="ellipse;whiteSpace=wrap;html=1;fontSize=16;" parent="zbVzGPJccRocd9qN9u0A-1" vertex="1">
                    <mxGeometry x="460" y="840" width="70" height="40" as="geometry"/>
                </mxCell>
                <mxCell id="zbVzGPJccRocd9qN9u0A-78" value="" style="endArrow=none;html=1;fontSize=16;exitX=0.5;exitY=0;exitDx=0;exitDy=0;entryX=0;entryY=0;entryDx=0;entryDy=0;" parent="zbVzGPJccRocd9qN9u0A-1" source="zbVzGPJccRocd9qN9u0A-72" target="zbVzGPJccRocd9qN9u0A-68" edge="1">
                    <mxGeometry width="50" height="50" relative="1" as="geometry">
                        <mxPoint x="194" y="700" as="sourcePoint"/>
                        <mxPoint x="244" y="650" as="targetPoint"/>
                    </mxGeometry>
                </mxCell>
                <mxCell id="zbVzGPJccRocd9qN9u0A-79" value="" style="endArrow=none;html=1;fontSize=16;exitX=0.5;exitY=0;exitDx=0;exitDy=0;entryX=0.5;entryY=1;entryDx=0;entryDy=0;" parent="zbVzGPJccRocd9qN9u0A-1" source="zbVzGPJccRocd9qN9u0A-76" target="zbVzGPJccRocd9qN9u0A-68" edge="1">
                    <mxGeometry width="50" height="50" relative="1" as="geometry">
                        <mxPoint x="194" y="700" as="sourcePoint"/>
                        <mxPoint x="244" y="650" as="targetPoint"/>
                    </mxGeometry>
                </mxCell>
                <mxCell id="zbVzGPJccRocd9qN9u0A-80" value="" style="endArrow=none;html=1;fontSize=16;exitX=0.5;exitY=0;exitDx=0;exitDy=0;entryX=1;entryY=0;entryDx=0;entryDy=0;" parent="zbVzGPJccRocd9qN9u0A-1" source="zbVzGPJccRocd9qN9u0A-71" target="zbVzGPJccRocd9qN9u0A-68" edge="1">
                    <mxGeometry width="50" height="50" relative="1" as="geometry">
                        <mxPoint x="194" y="700" as="sourcePoint"/>
                        <mxPoint x="244" y="650" as="targetPoint"/>
                    </mxGeometry>
                </mxCell>
                <mxCell id="zbVzGPJccRocd9qN9u0A-81" value="" style="endArrow=none;html=1;fontSize=16;exitX=0.5;exitY=0;exitDx=0;exitDy=0;entryX=0;entryY=1;entryDx=0;entryDy=0;" parent="zbVzGPJccRocd9qN9u0A-1" source="zbVzGPJccRocd9qN9u0A-75" target="zbVzGPJccRocd9qN9u0A-68" edge="1">
                    <mxGeometry width="50" height="50" relative="1" as="geometry">
                        <mxPoint x="194" y="700" as="sourcePoint"/>
                        <mxPoint x="244" y="650" as="targetPoint"/>
                    </mxGeometry>
                </mxCell>
                <mxCell id="zbVzGPJccRocd9qN9u0A-82" value="" style="endArrow=none;html=1;fontSize=16;exitX=0.5;exitY=0;exitDx=0;exitDy=0;entryX=1;entryY=1;entryDx=0;entryDy=0;" parent="zbVzGPJccRocd9qN9u0A-1" source="zbVzGPJccRocd9qN9u0A-77" target="zbVzGPJccRocd9qN9u0A-68" edge="1">
                    <mxGeometry width="50" height="50" relative="1" as="geometry">
                        <mxPoint x="194" y="700" as="sourcePoint"/>
                        <mxPoint x="244" y="650" as="targetPoint"/>
                    </mxGeometry>
                </mxCell>
                <mxCell id="zbVzGPJccRocd9qN9u0A-83" value="" style="endArrow=none;html=1;fontSize=16;exitX=0;exitY=0;exitDx=0;exitDy=0;entryX=0;entryY=0.25;entryDx=0;entryDy=0;" parent="zbVzGPJccRocd9qN9u0A-1" source="zbVzGPJccRocd9qN9u0A-69" target="zbVzGPJccRocd9qN9u0A-68" edge="1">
                    <mxGeometry width="50" height="50" relative="1" as="geometry">
                        <mxPoint x="194" y="700" as="sourcePoint"/>
                        <mxPoint x="244" y="650" as="targetPoint"/>
                    </mxGeometry>
                </mxCell>
                <mxCell id="zbVzGPJccRocd9qN9u0A-84" value="" style="endArrow=none;html=1;fontSize=16;exitX=1;exitY=0;exitDx=0;exitDy=0;entryX=1;entryY=0.25;entryDx=0;entryDy=0;" parent="zbVzGPJccRocd9qN9u0A-1" source="zbVzGPJccRocd9qN9u0A-70" target="zbVzGPJccRocd9qN9u0A-68" edge="1">
                    <mxGeometry width="50" height="50" relative="1" as="geometry">
                        <mxPoint x="194" y="700" as="sourcePoint"/>
                        <mxPoint x="244" y="650" as="targetPoint"/>
                    </mxGeometry>
                </mxCell>
                <mxCell id="zbVzGPJccRocd9qN9u0A-85" value="" style="endArrow=none;html=1;fontSize=16;entryX=0.25;entryY=1;entryDx=0;entryDy=0;" parent="zbVzGPJccRocd9qN9u0A-1" source="zbVzGPJccRocd9qN9u0A-73" target="zbVzGPJccRocd9qN9u0A-68" edge="1">
                    <mxGeometry width="50" height="50" relative="1" as="geometry">
                        <mxPoint x="194" y="700" as="sourcePoint"/>
                        <mxPoint x="244" y="650" as="targetPoint"/>
                    </mxGeometry>
                </mxCell>
                <mxCell id="zbVzGPJccRocd9qN9u0A-86" value="" style="endArrow=none;html=1;fontSize=16;exitX=0.5;exitY=0;exitDx=0;exitDy=0;entryX=0.75;entryY=1;entryDx=0;entryDy=0;" parent="zbVzGPJccRocd9qN9u0A-1" source="zbVzGPJccRocd9qN9u0A-74" target="zbVzGPJccRocd9qN9u0A-68" edge="1">
                    <mxGeometry width="50" height="50" relative="1" as="geometry">
                        <mxPoint x="194" y="700" as="sourcePoint"/>
                        <mxPoint x="244" y="650" as="targetPoint"/>
                    </mxGeometry>
                </mxCell>
            </root>
        </mxGraphModel>
    </diagram>
    <diagram id="Wkn27UmjP0DZcGuOuzBE" name="E-R图(4)">
        <mxGraphModel dx="930" dy="659" grid="1" gridSize="10" guides="1" tooltips="1" connect="1" arrows="1" fold="1" page="1" pageScale="1" pageWidth="827" pageHeight="1169" math="0" shadow="0">
            <root>
                <mxCell id="0"/>
                <mxCell id="1" parent="0"/>
                <mxCell id="vhbUALSKlgjR7YTaHwuB-9" value="&lt;span style=&quot;font-size: 16px;&quot;&gt;药品&lt;/span&gt;" style="rounded=0;whiteSpace=wrap;html=1;direction=east;" parent="1" vertex="1">
                    <mxGeometry x="550" y="150" width="80" height="40" as="geometry"/>
                </mxCell>
                <mxCell id="vhbUALSKlgjR7YTaHwuB-10" value="编码" style="ellipse;whiteSpace=wrap;html=1;fontSize=16;" parent="1" vertex="1">
                    <mxGeometry x="450" y="80" width="70" height="40" as="geometry"/>
                </mxCell>
                <mxCell id="vhbUALSKlgjR7YTaHwuB-11" value="名称" style="ellipse;whiteSpace=wrap;html=1;fontSize=16;" parent="1" vertex="1">
                    <mxGeometry x="555" y="80" width="70" height="40" as="geometry"/>
                </mxCell>
                <mxCell id="1qzsjc2u1v692UNUH2UU-1" value="类型" style="ellipse;whiteSpace=wrap;html=1;fontSize=16;" parent="1" vertex="1">
                    <mxGeometry x="660" y="80" width="70" height="40" as="geometry"/>
                </mxCell>
                <mxCell id="1qzsjc2u1v692UNUH2UU-2" value="价格" style="ellipse;whiteSpace=wrap;html=1;fontSize=16;" parent="1" vertex="1">
                    <mxGeometry x="380" y="120" width="70" height="40" as="geometry"/>
                </mxCell>
                <mxCell id="1qzsjc2u1v692UNUH2UU-3" value="规格" style="ellipse;whiteSpace=wrap;html=1;fontSize=16;" parent="1" vertex="1">
                    <mxGeometry x="730" y="130" width="70" height="40" as="geometry"/>
                </mxCell>
                <mxCell id="1qzsjc2u1v692UNUH2UU-4" value="用量" style="ellipse;whiteSpace=wrap;html=1;fontSize=16;" parent="1" vertex="1">
                    <mxGeometry x="730" y="30" width="70" height="40" as="geometry"/>
                </mxCell>
                <mxCell id="1qzsjc2u1v692UNUH2UU-5" value="厂家" style="ellipse;whiteSpace=wrap;html=1;fontSize=16;" parent="1" vertex="1">
                    <mxGeometry x="500" y="30" width="70" height="40" as="geometry"/>
                </mxCell>
                <mxCell id="1qzsjc2u1v692UNUH2UU-6" value="描述" style="ellipse;whiteSpace=wrap;html=1;fontSize=16;" parent="1" vertex="1">
                    <mxGeometry x="380" y="30" width="70" height="40" as="geometry"/>
                </mxCell>
                <mxCell id="1qzsjc2u1v692UNUH2UU-7" value="库存" style="ellipse;whiteSpace=wrap;html=1;fontSize=16;" parent="1" vertex="1">
                    <mxGeometry x="610" y="30" width="70" height="40" as="geometry"/>
                </mxCell>
                <mxCell id="1qzsjc2u1v692UNUH2UU-8" value="" style="endArrow=none;html=1;fontSize=16;entryX=1;entryY=1;entryDx=0;entryDy=0;exitX=0;exitY=1;exitDx=0;exitDy=0;" parent="1" source="vhbUALSKlgjR7YTaHwuB-9" target="1qzsjc2u1v692UNUH2UU-2" edge="1">
                    <mxGeometry width="50" height="50" relative="1" as="geometry">
                        <mxPoint x="400" y="340" as="sourcePoint"/>
                        <mxPoint x="450" y="290" as="targetPoint"/>
                    </mxGeometry>
                </mxCell>
                <mxCell id="1qzsjc2u1v692UNUH2UU-9" value="" style="endArrow=none;html=1;fontSize=16;entryX=1;entryY=1;entryDx=0;entryDy=0;exitX=0;exitY=0.5;exitDx=0;exitDy=0;" parent="1" source="1qzsjc2u1v692UNUH2UU-3" target="vhbUALSKlgjR7YTaHwuB-9" edge="1">
                    <mxGeometry width="50" height="50" relative="1" as="geometry">
                        <mxPoint x="400" y="340" as="sourcePoint"/>
                        <mxPoint x="450" y="290" as="targetPoint"/>
                    </mxGeometry>
                </mxCell>
                <mxCell id="1qzsjc2u1v692UNUH2UU-10" value="" style="endArrow=none;html=1;fontSize=16;entryX=0;entryY=1;entryDx=0;entryDy=0;exitX=0;exitY=0.75;exitDx=0;exitDy=0;" parent="1" source="vhbUALSKlgjR7YTaHwuB-9" target="1qzsjc2u1v692UNUH2UU-6" edge="1">
                    <mxGeometry width="50" height="50" relative="1" as="geometry">
                        <mxPoint x="400" y="340" as="sourcePoint"/>
                        <mxPoint x="450" y="290" as="targetPoint"/>
                    </mxGeometry>
                </mxCell>
                <mxCell id="1qzsjc2u1v692UNUH2UU-11" value="" style="endArrow=none;html=1;fontSize=16;entryX=1;entryY=1;entryDx=0;entryDy=0;exitX=1;exitY=0.75;exitDx=0;exitDy=0;" parent="1" source="vhbUALSKlgjR7YTaHwuB-9" target="1qzsjc2u1v692UNUH2UU-4" edge="1">
                    <mxGeometry width="50" height="50" relative="1" as="geometry">
                        <mxPoint x="660" y="170" as="sourcePoint"/>
                        <mxPoint x="450" y="290" as="targetPoint"/>
                    </mxGeometry>
                </mxCell>
                <mxCell id="1qzsjc2u1v692UNUH2UU-12" value="" style="endArrow=none;html=1;fontSize=16;entryX=0.5;entryY=1;entryDx=0;entryDy=0;exitX=0;exitY=0;exitDx=0;exitDy=0;" parent="1" source="vhbUALSKlgjR7YTaHwuB-9" target="vhbUALSKlgjR7YTaHwuB-10" edge="1">
                    <mxGeometry width="50" height="50" relative="1" as="geometry">
                        <mxPoint x="400" y="340" as="sourcePoint"/>
                        <mxPoint x="450" y="290" as="targetPoint"/>
                    </mxGeometry>
                </mxCell>
                <mxCell id="1qzsjc2u1v692UNUH2UU-13" value="" style="endArrow=none;html=1;fontSize=16;entryX=0.5;entryY=1;entryDx=0;entryDy=0;exitX=1;exitY=0;exitDx=0;exitDy=0;" parent="1" source="vhbUALSKlgjR7YTaHwuB-9" target="1qzsjc2u1v692UNUH2UU-1" edge="1">
                    <mxGeometry width="50" height="50" relative="1" as="geometry">
                        <mxPoint x="400" y="340" as="sourcePoint"/>
                        <mxPoint x="450" y="290" as="targetPoint"/>
                    </mxGeometry>
                </mxCell>
                <mxCell id="1qzsjc2u1v692UNUH2UU-14" value="" style="endArrow=none;html=1;fontSize=16;entryX=0.5;entryY=1;entryDx=0;entryDy=0;exitX=0.25;exitY=0;exitDx=0;exitDy=0;" parent="1" source="vhbUALSKlgjR7YTaHwuB-9" target="1qzsjc2u1v692UNUH2UU-5" edge="1">
                    <mxGeometry width="50" height="50" relative="1" as="geometry">
                        <mxPoint x="400" y="340" as="sourcePoint"/>
                        <mxPoint x="450" y="290" as="targetPoint"/>
                    </mxGeometry>
                </mxCell>
                <mxCell id="1qzsjc2u1v692UNUH2UU-15" value="" style="endArrow=none;html=1;fontSize=16;entryX=0.5;entryY=1;entryDx=0;entryDy=0;exitX=0.75;exitY=0;exitDx=0;exitDy=0;" parent="1" source="vhbUALSKlgjR7YTaHwuB-9" target="1qzsjc2u1v692UNUH2UU-7" edge="1">
                    <mxGeometry width="50" height="50" relative="1" as="geometry">
                        <mxPoint x="400" y="340" as="sourcePoint"/>
                        <mxPoint x="450" y="290" as="targetPoint"/>
                    </mxGeometry>
                </mxCell>
                <mxCell id="1qzsjc2u1v692UNUH2UU-16" value="" style="endArrow=none;html=1;fontSize=16;entryX=0.5;entryY=1;entryDx=0;entryDy=0;exitX=0.5;exitY=0;exitDx=0;exitDy=0;" parent="1" source="vhbUALSKlgjR7YTaHwuB-9" target="vhbUALSKlgjR7YTaHwuB-11" edge="1">
                    <mxGeometry width="50" height="50" relative="1" as="geometry">
                        <mxPoint x="400" y="340" as="sourcePoint"/>
                        <mxPoint x="450" y="290" as="targetPoint"/>
                    </mxGeometry>
                </mxCell>
                <mxCell id="xT8covsgk9M7bwN-b7F--10" value="&lt;font style=&quot;font-size: 16px;&quot;&gt;检测&lt;/font&gt;" style="rounded=0;whiteSpace=wrap;html=1;" parent="1" vertex="1">
                    <mxGeometry x="165" y="150" width="80" height="40" as="geometry"/>
                </mxCell>
                <mxCell id="xT8covsgk9M7bwN-b7F--11" value="名称" style="ellipse;whiteSpace=wrap;html=1;fontSize=16;" parent="1" vertex="1">
                    <mxGeometry x="80" y="100" width="70" height="40" as="geometry"/>
                </mxCell>
                <mxCell id="xT8covsgk9M7bwN-b7F--12" value="耗时" style="ellipse;whiteSpace=wrap;html=1;fontSize=16;" parent="1" vertex="1">
                    <mxGeometry x="80" y="200" width="70" height="40" as="geometry"/>
                </mxCell>
                <mxCell id="xT8covsgk9M7bwN-b7F--13" value="类型" style="ellipse;whiteSpace=wrap;html=1;fontSize=16;" parent="1" vertex="1">
                    <mxGeometry x="255" y="100" width="70" height="40" as="geometry"/>
                </mxCell>
                <mxCell id="xT8covsgk9M7bwN-b7F--14" value="费用" style="ellipse;whiteSpace=wrap;html=1;fontSize=16;" parent="1" vertex="1">
                    <mxGeometry x="255" y="200" width="70" height="40" as="geometry"/>
                </mxCell>
                <mxCell id="xT8covsgk9M7bwN-b7F--15" value="" style="endArrow=none;html=1;fontSize=16;exitX=1;exitY=1;exitDx=0;exitDy=0;" parent="1" source="xT8covsgk9M7bwN-b7F--11" target="xT8covsgk9M7bwN-b7F--10" edge="1">
                    <mxGeometry width="50" height="50" relative="1" as="geometry">
                        <mxPoint x="486" y="190" as="sourcePoint"/>
                        <mxPoint x="536" y="140" as="targetPoint"/>
                    </mxGeometry>
                </mxCell>
                <mxCell id="xT8covsgk9M7bwN-b7F--16" value="" style="endArrow=none;html=1;fontSize=16;exitX=1;exitY=0;exitDx=0;exitDy=0;" parent="1" source="xT8covsgk9M7bwN-b7F--10" target="xT8covsgk9M7bwN-b7F--13" edge="1">
                    <mxGeometry width="50" height="50" relative="1" as="geometry">
                        <mxPoint x="486" y="190" as="sourcePoint"/>
                        <mxPoint x="536" y="140" as="targetPoint"/>
                    </mxGeometry>
                </mxCell>
                <mxCell id="xT8covsgk9M7bwN-b7F--17" value="" style="endArrow=none;html=1;fontSize=16;exitX=1;exitY=0;exitDx=0;exitDy=0;" parent="1" source="xT8covsgk9M7bwN-b7F--12" target="xT8covsgk9M7bwN-b7F--10" edge="1">
                    <mxGeometry width="50" height="50" relative="1" as="geometry">
                        <mxPoint x="486" y="190" as="sourcePoint"/>
                        <mxPoint x="536" y="140" as="targetPoint"/>
                    </mxGeometry>
                </mxCell>
                <mxCell id="xT8covsgk9M7bwN-b7F--18" value="" style="endArrow=none;html=1;fontSize=16;" parent="1" target="xT8covsgk9M7bwN-b7F--14" edge="1">
                    <mxGeometry width="50" height="50" relative="1" as="geometry">
                        <mxPoint x="246" y="190" as="sourcePoint"/>
                        <mxPoint x="536" y="140" as="targetPoint"/>
                    </mxGeometry>
                </mxCell>
                <mxCell id="5r2i1DdRiOHvF-3ZOqap-11" value="&lt;font style=&quot;font-size: 16px;&quot;&gt;医生&lt;/font&gt;" style="rounded=0;whiteSpace=wrap;html=1;" parent="1" vertex="1">
                    <mxGeometry x="360" y="400" width="80" height="40" as="geometry"/>
                </mxCell>
                <mxCell id="XTzB0xAA1N7HMq61CJuM-1" value="执行/查看" style="rhombus;whiteSpace=wrap;html=1;fontSize=16;" parent="1" vertex="1">
                    <mxGeometry x="62" y="290" width="106" height="60" as="geometry"/>
                </mxCell>
                <mxCell id="NphzvKUwdPIa6557LBzz-1" value="" style="endArrow=none;html=1;fontSize=16;exitX=0.5;exitY=1;exitDx=0;exitDy=0;entryX=0.5;entryY=0;entryDx=0;entryDy=0;" parent="1" target="XTzB0xAA1N7HMq61CJuM-1" edge="1">
                    <mxGeometry width="50" height="50" relative="1" as="geometry">
                        <mxPoint x="204.5" y="190" as="sourcePoint"/>
                        <mxPoint x="204.5" y="290" as="targetPoint"/>
                    </mxGeometry>
                </mxCell>
                <mxCell id="49LCwFr8JIhowJqBG5SI-1" value="" style="endArrow=none;html=1;fontSize=16;entryX=0.5;entryY=1;entryDx=0;entryDy=0;exitX=0.25;exitY=0;exitDx=0;exitDy=0;" parent="1" source="5r2i1DdRiOHvF-3ZOqap-11" target="XTzB0xAA1N7HMq61CJuM-1" edge="1">
                    <mxGeometry width="50" height="50" relative="1" as="geometry">
                        <mxPoint x="270" y="440" as="sourcePoint"/>
                        <mxPoint x="490" y="320" as="targetPoint"/>
                    </mxGeometry>
                </mxCell>
                <mxCell id="s8rUCOkPRuErL3iJifoI-1" value="&lt;font style=&quot;font-size: 16px;&quot;&gt;病人&lt;/font&gt;" style="rounded=0;whiteSpace=wrap;html=1;" parent="1" vertex="1">
                    <mxGeometry x="360" y="750" width="80" height="40" as="geometry"/>
                </mxCell>
                <mxCell id="s8rUCOkPRuErL3iJifoI-2" value="账号" style="ellipse;whiteSpace=wrap;html=1;fontSize=16;" parent="1" vertex="1">
                    <mxGeometry x="190" y="880" width="70" height="40" as="geometry"/>
                </mxCell>
                <mxCell id="s8rUCOkPRuErL3iJifoI-3" value="密码" style="ellipse;whiteSpace=wrap;html=1;fontSize=16;" parent="1" vertex="1">
                    <mxGeometry x="520" y="880" width="70" height="40" as="geometry"/>
                </mxCell>
                <mxCell id="s8rUCOkPRuErL3iJifoI-4" value="姓名" style="ellipse;whiteSpace=wrap;html=1;fontSize=16;" parent="1" vertex="1">
                    <mxGeometry x="520" y="790" width="70" height="40" as="geometry"/>
                </mxCell>
                <mxCell id="s8rUCOkPRuErL3iJifoI-5" value="ID" style="ellipse;whiteSpace=wrap;html=1;fontSize=16;" parent="1" vertex="1">
                    <mxGeometry x="190" y="790" width="70" height="40" as="geometry"/>
                </mxCell>
                <mxCell id="s8rUCOkPRuErL3iJifoI-6" value="性别" style="ellipse;whiteSpace=wrap;html=1;fontSize=16;" parent="1" vertex="1">
                    <mxGeometry x="310" y="880" width="70" height="40" as="geometry"/>
                </mxCell>
                <mxCell id="s8rUCOkPRuErL3iJifoI-7" value="年龄" style="ellipse;whiteSpace=wrap;html=1;fontSize=16;" parent="1" vertex="1">
                    <mxGeometry x="420" y="880" width="70" height="40" as="geometry"/>
                </mxCell>
                <mxCell id="s8rUCOkPRuErL3iJifoI-8" value="电话" style="ellipse;whiteSpace=wrap;html=1;fontSize=16;" parent="1" vertex="1">
                    <mxGeometry x="260" y="830" width="70" height="40" as="geometry"/>
                </mxCell>
                <mxCell id="s8rUCOkPRuErL3iJifoI-9" value="邮箱" style="ellipse;whiteSpace=wrap;html=1;fontSize=16;" parent="1" vertex="1">
                    <mxGeometry x="365" y="830" width="70" height="40" as="geometry"/>
                </mxCell>
                <mxCell id="s8rUCOkPRuErL3iJifoI-10" value="医保" style="ellipse;whiteSpace=wrap;html=1;fontSize=16;" parent="1" vertex="1">
                    <mxGeometry x="460" y="830" width="70" height="40" as="geometry"/>
                </mxCell>
                <mxCell id="s8rUCOkPRuErL3iJifoI-11" value="" style="endArrow=none;html=1;fontSize=16;exitX=0.5;exitY=0;exitDx=0;exitDy=0;entryX=0;entryY=0;entryDx=0;entryDy=0;" parent="1" source="s8rUCOkPRuErL3iJifoI-5" target="s8rUCOkPRuErL3iJifoI-1" edge="1">
                    <mxGeometry width="50" height="50" relative="1" as="geometry">
                        <mxPoint x="194" y="690" as="sourcePoint"/>
                        <mxPoint x="244" y="640" as="targetPoint"/>
                    </mxGeometry>
                </mxCell>
                <mxCell id="s8rUCOkPRuErL3iJifoI-12" value="" style="endArrow=none;html=1;fontSize=16;exitX=0.5;exitY=0;exitDx=0;exitDy=0;entryX=0.5;entryY=1;entryDx=0;entryDy=0;" parent="1" source="s8rUCOkPRuErL3iJifoI-9" target="s8rUCOkPRuErL3iJifoI-1" edge="1">
                    <mxGeometry width="50" height="50" relative="1" as="geometry">
                        <mxPoint x="194" y="690" as="sourcePoint"/>
                        <mxPoint x="244" y="640" as="targetPoint"/>
                    </mxGeometry>
                </mxCell>
                <mxCell id="s8rUCOkPRuErL3iJifoI-13" value="" style="endArrow=none;html=1;fontSize=16;exitX=0.5;exitY=0;exitDx=0;exitDy=0;entryX=1;entryY=0;entryDx=0;entryDy=0;" parent="1" source="s8rUCOkPRuErL3iJifoI-4" target="s8rUCOkPRuErL3iJifoI-1" edge="1">
                    <mxGeometry width="50" height="50" relative="1" as="geometry">
                        <mxPoint x="194" y="690" as="sourcePoint"/>
                        <mxPoint x="244" y="640" as="targetPoint"/>
                    </mxGeometry>
                </mxCell>
                <mxCell id="s8rUCOkPRuErL3iJifoI-14" value="" style="endArrow=none;html=1;fontSize=16;exitX=0.5;exitY=0;exitDx=0;exitDy=0;entryX=0;entryY=1;entryDx=0;entryDy=0;" parent="1" source="s8rUCOkPRuErL3iJifoI-8" target="s8rUCOkPRuErL3iJifoI-1" edge="1">
                    <mxGeometry width="50" height="50" relative="1" as="geometry">
                        <mxPoint x="194" y="690" as="sourcePoint"/>
                        <mxPoint x="244" y="640" as="targetPoint"/>
                    </mxGeometry>
                </mxCell>
                <mxCell id="s8rUCOkPRuErL3iJifoI-15" value="" style="endArrow=none;html=1;fontSize=16;exitX=0.5;exitY=0;exitDx=0;exitDy=0;entryX=1;entryY=1;entryDx=0;entryDy=0;" parent="1" source="s8rUCOkPRuErL3iJifoI-10" target="s8rUCOkPRuErL3iJifoI-1" edge="1">
                    <mxGeometry width="50" height="50" relative="1" as="geometry">
                        <mxPoint x="194" y="690" as="sourcePoint"/>
                        <mxPoint x="244" y="640" as="targetPoint"/>
                    </mxGeometry>
                </mxCell>
                <mxCell id="s8rUCOkPRuErL3iJifoI-16" value="" style="endArrow=none;html=1;fontSize=16;exitX=0;exitY=0;exitDx=0;exitDy=0;entryX=0;entryY=0.25;entryDx=0;entryDy=0;" parent="1" source="s8rUCOkPRuErL3iJifoI-2" target="s8rUCOkPRuErL3iJifoI-1" edge="1">
                    <mxGeometry width="50" height="50" relative="1" as="geometry">
                        <mxPoint x="194" y="690" as="sourcePoint"/>
                        <mxPoint x="244" y="640" as="targetPoint"/>
                    </mxGeometry>
                </mxCell>
                <mxCell id="s8rUCOkPRuErL3iJifoI-17" value="" style="endArrow=none;html=1;fontSize=16;exitX=1;exitY=0;exitDx=0;exitDy=0;entryX=1;entryY=0.25;entryDx=0;entryDy=0;" parent="1" source="s8rUCOkPRuErL3iJifoI-3" target="s8rUCOkPRuErL3iJifoI-1" edge="1">
                    <mxGeometry width="50" height="50" relative="1" as="geometry">
                        <mxPoint x="194" y="690" as="sourcePoint"/>
                        <mxPoint x="244" y="640" as="targetPoint"/>
                    </mxGeometry>
                </mxCell>
                <mxCell id="s8rUCOkPRuErL3iJifoI-18" value="" style="endArrow=none;html=1;fontSize=16;entryX=0.25;entryY=1;entryDx=0;entryDy=0;" parent="1" source="s8rUCOkPRuErL3iJifoI-6" target="s8rUCOkPRuErL3iJifoI-1" edge="1">
                    <mxGeometry width="50" height="50" relative="1" as="geometry">
                        <mxPoint x="194" y="690" as="sourcePoint"/>
                        <mxPoint x="244" y="640" as="targetPoint"/>
                    </mxGeometry>
                </mxCell>
                <mxCell id="s8rUCOkPRuErL3iJifoI-19" value="" style="endArrow=none;html=1;fontSize=16;exitX=0.5;exitY=0;exitDx=0;exitDy=0;entryX=0.75;entryY=1;entryDx=0;entryDy=0;" parent="1" source="s8rUCOkPRuErL3iJifoI-7" target="s8rUCOkPRuErL3iJifoI-1" edge="1">
                    <mxGeometry width="50" height="50" relative="1" as="geometry">
                        <mxPoint x="194" y="690" as="sourcePoint"/>
                        <mxPoint x="244" y="640" as="targetPoint"/>
                    </mxGeometry>
                </mxCell>
                <mxCell id="dX_tKZJjoMrPK9mpTVCd-1" value="&lt;font style=&quot;font-size: 16px;&quot;&gt;病例单&lt;/font&gt;" style="rounded=0;whiteSpace=wrap;html=1;" parent="1" vertex="1">
                    <mxGeometry x="637" y="570" width="80" height="40" as="geometry"/>
                </mxCell>
                <mxCell id="JesT49cdcvGgKeMC6BMF-6" value="写入" style="rhombus;whiteSpace=wrap;html=1;fontSize=16;" parent="1" vertex="1">
                    <mxGeometry x="490" y="560" width="106" height="60" as="geometry"/>
                </mxCell>
                <mxCell id="JesT49cdcvGgKeMC6BMF-9" value="时间" style="ellipse;whiteSpace=wrap;html=1;fontSize=16;" parent="1" vertex="1">
                    <mxGeometry x="642" y="490" width="70" height="40" as="geometry"/>
                </mxCell>
                <mxCell id="JesT49cdcvGgKeMC6BMF-10" value="诊断" style="ellipse;whiteSpace=wrap;html=1;fontSize=16;" parent="1" vertex="1">
                    <mxGeometry x="757" y="570" width="70" height="40" as="geometry"/>
                </mxCell>
                <mxCell id="JesT49cdcvGgKeMC6BMF-11" value="描述" style="ellipse;whiteSpace=wrap;html=1;fontSize=16;" parent="1" vertex="1">
                    <mxGeometry x="642" y="650" width="70" height="40" as="geometry"/>
                </mxCell>
                <mxCell id="JesT49cdcvGgKeMC6BMF-12" value="" style="endArrow=none;html=1;fontSize=16;exitX=0.5;exitY=0;exitDx=0;exitDy=0;" parent="1" source="dX_tKZJjoMrPK9mpTVCd-1" target="JesT49cdcvGgKeMC6BMF-9" edge="1">
                    <mxGeometry width="50" height="50" relative="1" as="geometry">
                        <mxPoint x="477" y="520" as="sourcePoint"/>
                        <mxPoint x="527" y="470" as="targetPoint"/>
                    </mxGeometry>
                </mxCell>
                <mxCell id="JesT49cdcvGgKeMC6BMF-14" value="" style="endArrow=none;html=1;fontSize=16;exitX=0.5;exitY=0;exitDx=0;exitDy=0;" parent="1" edge="1">
                    <mxGeometry width="50" height="50" relative="1" as="geometry">
                        <mxPoint x="676.5" y="650" as="sourcePoint"/>
                        <mxPoint x="676.5" y="610" as="targetPoint"/>
                    </mxGeometry>
                </mxCell>
                <mxCell id="JesT49cdcvGgKeMC6BMF-15" value="" style="endArrow=none;html=1;fontSize=16;exitX=1;exitY=0.5;exitDx=0;exitDy=0;entryX=0;entryY=0.5;entryDx=0;entryDy=0;" parent="1" source="dX_tKZJjoMrPK9mpTVCd-1" target="JesT49cdcvGgKeMC6BMF-10" edge="1">
                    <mxGeometry width="50" height="50" relative="1" as="geometry">
                        <mxPoint x="477" y="530" as="sourcePoint"/>
                        <mxPoint x="527" y="480" as="targetPoint"/>
                    </mxGeometry>
                </mxCell>
                <mxCell id="JesT49cdcvGgKeMC6BMF-16" value="查看" style="rhombus;whiteSpace=wrap;html=1;fontSize=16;" parent="1" vertex="1">
                    <mxGeometry x="490" y="660" width="106" height="60" as="geometry"/>
                </mxCell>
                <mxCell id="vrKpf-JxCB2i_FxG1Dol-1" value="&lt;span style=&quot;font-size: 16px;&quot;&gt;管理员&lt;/span&gt;" style="rounded=0;whiteSpace=wrap;html=1;" parent="1" vertex="1">
                    <mxGeometry x="121.5" y="545" width="80" height="40" as="geometry"/>
                </mxCell>
                <mxCell id="vrKpf-JxCB2i_FxG1Dol-2" value="账号" style="ellipse;whiteSpace=wrap;html=1;fontSize=16;" parent="1" vertex="1">
                    <mxGeometry x="28.5" y="615" width="70" height="40" as="geometry"/>
                </mxCell>
                <mxCell id="vrKpf-JxCB2i_FxG1Dol-3" value="密码" style="ellipse;whiteSpace=wrap;html=1;fontSize=16;" parent="1" vertex="1">
                    <mxGeometry x="126.5" y="615" width="70" height="40" as="geometry"/>
                </mxCell>
                <mxCell id="vrKpf-JxCB2i_FxG1Dol-4" value="姓名" style="ellipse;whiteSpace=wrap;html=1;fontSize=16;" parent="1" vertex="1">
                    <mxGeometry x="28.5" y="550" width="70" height="40" as="geometry"/>
                </mxCell>
                <mxCell id="vrKpf-JxCB2i_FxG1Dol-5" value="邮箱" style="ellipse;whiteSpace=wrap;html=1;fontSize=16;" parent="1" vertex="1">
                    <mxGeometry x="28.5" y="480" width="70" height="40" as="geometry"/>
                </mxCell>
                <mxCell id="vrKpf-JxCB2i_FxG1Dol-6" value="职位" style="ellipse;whiteSpace=wrap;html=1;fontSize=16;" parent="1" vertex="1">
                    <mxGeometry x="126.5" y="480" width="70" height="40" as="geometry"/>
                </mxCell>
                <mxCell id="vrKpf-JxCB2i_FxG1Dol-7" value="最后登录" style="ellipse;whiteSpace=wrap;html=1;fontSize=16;" parent="1" vertex="1">
                    <mxGeometry x="28.5" y="420" width="70" height="40" as="geometry"/>
                </mxCell>
                <mxCell id="vrKpf-JxCB2i_FxG1Dol-9" value="" style="endArrow=none;html=1;fontSize=16;exitX=0.5;exitY=0;exitDx=0;exitDy=0;entryX=0.5;entryY=1;entryDx=0;entryDy=0;" parent="1" source="vrKpf-JxCB2i_FxG1Dol-3" target="vrKpf-JxCB2i_FxG1Dol-1" edge="1">
                    <mxGeometry width="50" height="50" relative="1" as="geometry">
                        <mxPoint x="-78.5" y="525" as="sourcePoint"/>
                        <mxPoint x="-28.5" y="475" as="targetPoint"/>
                    </mxGeometry>
                </mxCell>
                <mxCell id="-47WDhF8EYB1aFJ8DIDY-9" value="" style="endArrow=none;html=1;fontSize=16;entryX=0.5;entryY=1;entryDx=0;entryDy=0;exitX=0.5;exitY=0;exitDx=0;exitDy=0;" parent="1" source="ezdmm4-YfRrITyFo6kQp-1" target="xT8covsgk9M7bwN-b7F--10" edge="1">
                    <mxGeometry width="50" height="50" relative="1" as="geometry">
                        <mxPoint x="380" y="320" as="sourcePoint"/>
                        <mxPoint x="490" y="330" as="targetPoint"/>
                    </mxGeometry>
                </mxCell>
                <mxCell id="C0oc0iGACFAhX2XHiPdW-1" value="" style="endArrow=none;html=1;fontSize=16;exitX=1;exitY=0;exitDx=0;exitDy=0;entryX=0.25;entryY=1;entryDx=0;entryDy=0;" parent="1" source="vrKpf-JxCB2i_FxG1Dol-2" target="vrKpf-JxCB2i_FxG1Dol-1" edge="1">
                    <mxGeometry width="50" height="50" relative="1" as="geometry">
                        <mxPoint x="418.5" y="660" as="sourcePoint"/>
                        <mxPoint x="468.5" y="610" as="targetPoint"/>
                    </mxGeometry>
                </mxCell>
                <mxCell id="C0oc0iGACFAhX2XHiPdW-2" value="" style="endArrow=none;html=1;fontSize=16;exitX=1;exitY=0.5;exitDx=0;exitDy=0;entryX=0;entryY=0.5;entryDx=0;entryDy=0;" parent="1" source="vrKpf-JxCB2i_FxG1Dol-4" target="vrKpf-JxCB2i_FxG1Dol-1" edge="1">
                    <mxGeometry width="50" height="50" relative="1" as="geometry">
                        <mxPoint x="418.5" y="660" as="sourcePoint"/>
                        <mxPoint x="468.5" y="610" as="targetPoint"/>
                    </mxGeometry>
                </mxCell>
                <mxCell id="C0oc0iGACFAhX2XHiPdW-3" value="" style="endArrow=none;html=1;fontSize=16;exitX=1;exitY=0.5;exitDx=0;exitDy=0;entryX=0;entryY=0;entryDx=0;entryDy=0;" parent="1" source="vrKpf-JxCB2i_FxG1Dol-5" target="vrKpf-JxCB2i_FxG1Dol-1" edge="1">
                    <mxGeometry width="50" height="50" relative="1" as="geometry">
                        <mxPoint x="418.5" y="660" as="sourcePoint"/>
                        <mxPoint x="468.5" y="610" as="targetPoint"/>
                    </mxGeometry>
                </mxCell>
                <mxCell id="C0oc0iGACFAhX2XHiPdW-4" value="" style="endArrow=none;html=1;fontSize=16;exitX=1;exitY=1;exitDx=0;exitDy=0;entryX=0.25;entryY=0;entryDx=0;entryDy=0;" parent="1" source="vrKpf-JxCB2i_FxG1Dol-7" target="vrKpf-JxCB2i_FxG1Dol-1" edge="1">
                    <mxGeometry width="50" height="50" relative="1" as="geometry">
                        <mxPoint x="418.5" y="660" as="sourcePoint"/>
                        <mxPoint x="468.5" y="610" as="targetPoint"/>
                    </mxGeometry>
                </mxCell>
                <mxCell id="C0oc0iGACFAhX2XHiPdW-5" value="" style="endArrow=none;html=1;fontSize=16;exitX=0.5;exitY=0;exitDx=0;exitDy=0;entryX=0.5;entryY=1;entryDx=0;entryDy=0;" parent="1" source="vrKpf-JxCB2i_FxG1Dol-1" target="vrKpf-JxCB2i_FxG1Dol-6" edge="1">
                    <mxGeometry width="50" height="50" relative="1" as="geometry">
                        <mxPoint x="418.5" y="660" as="sourcePoint"/>
                        <mxPoint x="468.5" y="610" as="targetPoint"/>
                    </mxGeometry>
                </mxCell>
                <mxCell id="C0oc0iGACFAhX2XHiPdW-6" value="" style="endArrow=none;html=1;fontSize=16;exitX=0.5;exitY=1;exitDx=0;exitDy=0;entryX=0.5;entryY=0;entryDx=0;entryDy=0;" parent="1" target="5YfvdQnnSScPdqjLP8oq-1" edge="1">
                    <mxGeometry width="50" height="50" relative="1" as="geometry">
                        <mxPoint x="399.5" y="440" as="sourcePoint"/>
                        <mxPoint x="399.5" y="540" as="targetPoint"/>
                    </mxGeometry>
                </mxCell>
                <mxCell id="5YfvdQnnSScPdqjLP8oq-1" value="问诊" style="rhombus;whiteSpace=wrap;html=1;fontSize=16;" parent="1" vertex="1">
                    <mxGeometry x="347" y="560" width="106" height="60" as="geometry"/>
                </mxCell>
                <mxCell id="5YfvdQnnSScPdqjLP8oq-2" value="" style="endArrow=none;html=1;fontSize=16;exitX=0.5;exitY=1;exitDx=0;exitDy=0;entryX=0.5;entryY=0;entryDx=0;entryDy=0;" parent="1" source="5YfvdQnnSScPdqjLP8oq-1" target="s8rUCOkPRuErL3iJifoI-1" edge="1">
                    <mxGeometry width="50" height="50" relative="1" as="geometry">
                        <mxPoint x="399.5" y="595" as="sourcePoint"/>
                        <mxPoint x="399.5" y="695" as="targetPoint"/>
                    </mxGeometry>
                </mxCell>
                <mxCell id="F8lSQDFpmZw4Rb9fH8M6-1" value="" style="endArrow=none;html=1;fontSize=16;entryX=0;entryY=0.5;entryDx=0;entryDy=0;exitX=1;exitY=0.5;exitDx=0;exitDy=0;" parent="1" source="5YfvdQnnSScPdqjLP8oq-1" target="JesT49cdcvGgKeMC6BMF-6" edge="1">
                    <mxGeometry width="50" height="50" relative="1" as="geometry">
                        <mxPoint x="420" y="600" as="sourcePoint"/>
                        <mxPoint x="470" y="550" as="targetPoint"/>
                    </mxGeometry>
                </mxCell>
                <mxCell id="F8lSQDFpmZw4Rb9fH8M6-2" value="" style="endArrow=none;html=1;fontSize=16;exitX=1;exitY=0.5;exitDx=0;exitDy=0;entryX=0;entryY=0.5;entryDx=0;entryDy=0;" parent="1" source="JesT49cdcvGgKeMC6BMF-6" target="dX_tKZJjoMrPK9mpTVCd-1" edge="1">
                    <mxGeometry width="50" height="50" relative="1" as="geometry">
                        <mxPoint x="596" y="620" as="sourcePoint"/>
                        <mxPoint x="470" y="580" as="targetPoint"/>
                    </mxGeometry>
                </mxCell>
                <mxCell id="F8lSQDFpmZw4Rb9fH8M6-3" value="" style="endArrow=none;html=1;fontSize=16;exitX=0.5;exitY=0;exitDx=0;exitDy=0;entryX=0;entryY=0.5;entryDx=0;entryDy=0;" parent="1" source="s8rUCOkPRuErL3iJifoI-1" target="JesT49cdcvGgKeMC6BMF-16" edge="1">
                    <mxGeometry width="50" height="50" relative="1" as="geometry">
                        <mxPoint x="420" y="600" as="sourcePoint"/>
                        <mxPoint x="470" y="550" as="targetPoint"/>
                    </mxGeometry>
                </mxCell>
                <mxCell id="F8lSQDFpmZw4Rb9fH8M6-4" value="" style="endArrow=none;html=1;fontSize=16;exitX=1;exitY=0;exitDx=0;exitDy=0;entryX=0;entryY=1;entryDx=0;entryDy=0;" parent="1" source="JesT49cdcvGgKeMC6BMF-16" target="dX_tKZJjoMrPK9mpTVCd-1" edge="1">
                    <mxGeometry width="50" height="50" relative="1" as="geometry">
                        <mxPoint x="596" y="720" as="sourcePoint"/>
                        <mxPoint x="470" y="580" as="targetPoint"/>
                    </mxGeometry>
                </mxCell>
                <mxCell id="F8lSQDFpmZw4Rb9fH8M6-5" value="管理" style="rhombus;whiteSpace=wrap;html=1;fontSize=16;" parent="1" vertex="1">
                    <mxGeometry x="486" y="450" width="106" height="60" as="geometry"/>
                </mxCell>
                <mxCell id="F8lSQDFpmZw4Rb9fH8M6-6" value="" style="endArrow=none;html=1;fontSize=16;entryX=1;entryY=0.5;entryDx=0;entryDy=0;exitX=0;exitY=0;exitDx=0;exitDy=0;" parent="1" source="dX_tKZJjoMrPK9mpTVCd-1" target="F8lSQDFpmZw4Rb9fH8M6-5" edge="1">
                    <mxGeometry width="50" height="50" relative="1" as="geometry">
                        <mxPoint x="420" y="600" as="sourcePoint"/>
                        <mxPoint x="470" y="550" as="targetPoint"/>
                    </mxGeometry>
                </mxCell>
                <mxCell id="F8lSQDFpmZw4Rb9fH8M6-7" value="" style="endArrow=none;html=1;fontSize=16;exitX=1;exitY=0.5;exitDx=0;exitDy=0;entryX=0;entryY=0.5;entryDx=0;entryDy=0;" parent="1" source="vrKpf-JxCB2i_FxG1Dol-1" target="F8lSQDFpmZw4Rb9fH8M6-5" edge="1">
                    <mxGeometry width="50" height="50" relative="1" as="geometry">
                        <mxPoint x="420" y="600" as="sourcePoint"/>
                        <mxPoint x="470" y="550" as="targetPoint"/>
                    </mxGeometry>
                </mxCell>
                <mxCell id="ezdmm4-YfRrITyFo6kQp-1" value="管理" style="rhombus;whiteSpace=wrap;html=1;fontSize=16;" parent="1" vertex="1">
                    <mxGeometry x="219" y="290" width="106" height="60" as="geometry"/>
                </mxCell>
                <mxCell id="ezdmm4-YfRrITyFo6kQp-3" value="" style="endArrow=none;html=1;fontSize=16;exitX=1;exitY=0;exitDx=0;exitDy=0;entryX=0.5;entryY=1;entryDx=0;entryDy=0;" parent="1" source="vrKpf-JxCB2i_FxG1Dol-1" target="ezdmm4-YfRrITyFo6kQp-1" edge="1">
                    <mxGeometry width="50" height="50" relative="1" as="geometry">
                        <mxPoint x="420" y="400" as="sourcePoint"/>
                        <mxPoint x="470" y="350" as="targetPoint"/>
                    </mxGeometry>
                </mxCell>
                <mxCell id="ezdmm4-YfRrITyFo6kQp-4" value="执行/查看" style="rhombus;whiteSpace=wrap;html=1;fontSize=16;" parent="1" vertex="1">
                    <mxGeometry x="458.5" y="290" width="106" height="60" as="geometry"/>
                </mxCell>
                <mxCell id="ezdmm4-YfRrITyFo6kQp-5" value="管理" style="rhombus;whiteSpace=wrap;html=1;fontSize=16;" parent="1" vertex="1">
                    <mxGeometry x="615.5" y="290" width="106" height="60" as="geometry"/>
                </mxCell>
                <mxCell id="ezdmm4-YfRrITyFo6kQp-6" value="" style="endArrow=none;html=1;fontSize=16;entryX=0.5;entryY=1;entryDx=0;entryDy=0;exitX=0.5;exitY=0;exitDx=0;exitDy=0;" parent="1" source="ezdmm4-YfRrITyFo6kQp-4" target="vhbUALSKlgjR7YTaHwuB-9" edge="1">
                    <mxGeometry width="50" height="50" relative="1" as="geometry">
                        <mxPoint x="420" y="300" as="sourcePoint"/>
                        <mxPoint x="470" y="250" as="targetPoint"/>
                    </mxGeometry>
                </mxCell>
                <mxCell id="ezdmm4-YfRrITyFo6kQp-7" value="" style="endArrow=none;html=1;fontSize=16;entryX=0.5;entryY=1;entryDx=0;entryDy=0;exitX=0.5;exitY=0;exitDx=0;exitDy=0;" parent="1" source="ezdmm4-YfRrITyFo6kQp-5" target="vhbUALSKlgjR7YTaHwuB-9" edge="1">
                    <mxGeometry width="50" height="50" relative="1" as="geometry">
                        <mxPoint x="420" y="300" as="sourcePoint"/>
                        <mxPoint x="470" y="250" as="targetPoint"/>
                    </mxGeometry>
                </mxCell>
                <mxCell id="ezdmm4-YfRrITyFo6kQp-8" value="" style="endArrow=none;html=1;fontSize=16;exitX=0.75;exitY=0;exitDx=0;exitDy=0;entryX=0.5;entryY=1;entryDx=0;entryDy=0;" parent="1" source="5r2i1DdRiOHvF-3ZOqap-11" target="ezdmm4-YfRrITyFo6kQp-4" edge="1">
                    <mxGeometry width="50" height="50" relative="1" as="geometry">
                        <mxPoint x="420" y="300" as="sourcePoint"/>
                        <mxPoint x="470" y="250" as="targetPoint"/>
                    </mxGeometry>
                </mxCell>
                <mxCell id="ezdmm4-YfRrITyFo6kQp-10" value="" style="endArrow=none;html=1;fontSize=16;exitX=1;exitY=0.25;exitDx=0;exitDy=0;entryX=0.5;entryY=1;entryDx=0;entryDy=0;" parent="1" source="vrKpf-JxCB2i_FxG1Dol-1" target="ezdmm4-YfRrITyFo6kQp-5" edge="1">
                    <mxGeometry width="50" height="50" relative="1" as="geometry">
                        <mxPoint x="420" y="300" as="sourcePoint"/>
                        <mxPoint x="470" y="250" as="targetPoint"/>
                    </mxGeometry>
                </mxCell>
                <mxCell id="zEuMWDvkUfSLF_jxEQAN-1" value="&lt;span style=&quot;font-size: 16px;&quot;&gt;缴费账单&lt;/span&gt;" style="rounded=0;whiteSpace=wrap;html=1;" parent="1" vertex="1">
                    <mxGeometry x="247" y="570" width="80" height="40" as="geometry"/>
                </mxCell>
                <mxCell id="zEuMWDvkUfSLF_jxEQAN-2" value="管理" style="rhombus;whiteSpace=wrap;html=1;fontSize=16;" parent="1" vertex="1">
                    <mxGeometry x="234" y="440" width="106" height="60" as="geometry"/>
                </mxCell>
                <mxCell id="zEuMWDvkUfSLF_jxEQAN-3" value="" style="endArrow=none;html=1;fontSize=16;exitX=0.75;exitY=0;exitDx=0;exitDy=0;entryX=0;entryY=0.5;entryDx=0;entryDy=0;" parent="1" source="vrKpf-JxCB2i_FxG1Dol-1" target="zEuMWDvkUfSLF_jxEQAN-2" edge="1">
                    <mxGeometry width="50" height="50" relative="1" as="geometry">
                        <mxPoint x="420" y="600" as="sourcePoint"/>
                        <mxPoint x="470" y="550" as="targetPoint"/>
                    </mxGeometry>
                </mxCell>
                <mxCell id="zEuMWDvkUfSLF_jxEQAN-4" value="" style="endArrow=none;html=1;fontSize=16;exitX=0.5;exitY=0;exitDx=0;exitDy=0;entryX=0.5;entryY=1;entryDx=0;entryDy=0;" parent="1" source="zEuMWDvkUfSLF_jxEQAN-1" target="zEuMWDvkUfSLF_jxEQAN-2" edge="1">
                    <mxGeometry width="50" height="50" relative="1" as="geometry">
                        <mxPoint x="420" y="600" as="sourcePoint"/>
                        <mxPoint x="470" y="550" as="targetPoint"/>
                    </mxGeometry>
                </mxCell>
                <mxCell id="zEuMWDvkUfSLF_jxEQAN-5" value="" style="endArrow=none;html=1;fontSize=16;exitX=1;exitY=0.5;exitDx=0;exitDy=0;entryX=0;entryY=0.5;entryDx=0;entryDy=0;" parent="1" source="zEuMWDvkUfSLF_jxEQAN-1" target="5YfvdQnnSScPdqjLP8oq-1" edge="1">
                    <mxGeometry width="50" height="50" relative="1" as="geometry">
                        <mxPoint x="420" y="600" as="sourcePoint"/>
                        <mxPoint x="470" y="550" as="targetPoint"/>
                    </mxGeometry>
                </mxCell>
                <mxCell id="DzBwk_6ba6xG_64try2N-1" value="缴费" style="rhombus;whiteSpace=wrap;html=1;fontSize=16;" parent="1" vertex="1">
                    <mxGeometry x="234" y="650" width="106" height="60" as="geometry"/>
                </mxCell>
                <mxCell id="DzBwk_6ba6xG_64try2N-2" value="" style="endArrow=none;html=1;fontSize=16;exitX=0.5;exitY=0;exitDx=0;exitDy=0;entryX=0.5;entryY=1;entryDx=0;entryDy=0;" parent="1" source="DzBwk_6ba6xG_64try2N-1" target="zEuMWDvkUfSLF_jxEQAN-1" edge="1">
                    <mxGeometry width="50" height="50" relative="1" as="geometry">
                        <mxPoint x="420" y="700" as="sourcePoint"/>
                        <mxPoint x="470" y="650" as="targetPoint"/>
                    </mxGeometry>
                </mxCell>
                <mxCell id="DzBwk_6ba6xG_64try2N-3" value="" style="endArrow=none;html=1;fontSize=16;exitX=0.25;exitY=0;exitDx=0;exitDy=0;entryX=0.5;entryY=1;entryDx=0;entryDy=0;" parent="1" source="s8rUCOkPRuErL3iJifoI-1" target="DzBwk_6ba6xG_64try2N-1" edge="1">
                    <mxGeometry width="50" height="50" relative="1" as="geometry">
                        <mxPoint x="420" y="700" as="sourcePoint"/>
                        <mxPoint x="470" y="650" as="targetPoint"/>
                    </mxGeometry>
                </mxCell>
            </root>
        </mxGraphModel>
    </diagram>
</mxfile>